<svg width="33" height="32" viewBox="0 0 33 32" fill="none" xmlns="http://www.w3.org/2000/svg">
<g clip-path="url(#clip0)">
<path d="M19.0375 18.0625L22.725 14.375C23.9938 13.1062 23.9938 11.0437 22.725 9.77498C22.1125 9.16248 21.2938 8.82498 20.425 8.82498C19.5563 8.82498 18.7375 9.16248 18.125 9.77498L16.85 11.0437C16.6688 11.225 16.6688 11.525 16.85 11.7062C17.0313 11.8875 17.3313 11.8875 17.5125 11.7062L18.7875 10.4375C19.225 9.99998 19.8063 9.76248 20.425 9.76248C21.0438 9.76248 21.625 9.99998 22.0625 10.4375C22.9625 11.3375 22.9625 12.8062 22.0625 13.7125L18.375 17.4C17.475 18.3 16.0063 18.3 15.1 17.4C14.2 16.5 14.2 15.0312 15.1 14.125L15.9875 13.2375C16.1688 13.0562 16.1688 12.7562 15.9875 12.575C15.8063 12.3937 15.5063 12.3937 15.325 12.575L14.4375 13.4625C13.825 14.075 13.4875 14.8937 13.4875 15.7625C13.4875 16.6312 13.825 17.45 14.4375 18.0625C15.075 18.6937 15.9063 19.0125 16.7375 19.0125C17.5688 19.0125 18.4 18.7 19.0375 18.0625Z" fill="#06555A"/>
<path d="M11.9063 18.3C11.725 18.1187 11.425 18.1187 11.2438 18.3C11.0625 18.4813 11.0625 18.7813 11.2438 18.9625L13.65 21.3688C13.7438 21.4625 13.8625 21.5063 13.9813 21.5063C14.1 21.5063 14.2188 21.4625 14.3125 21.3688C14.4938 21.1875 14.4938 20.8875 14.3125 20.7063L11.9063 18.3Z" fill="#06555A"/>
<path d="M26 8.71252C26.6063 8.10627 26.6063 7.11877 26 6.51252C25.3938 5.90627 24.4063 5.90627 23.7938 6.51252C23.5 6.80627 23.3375 7.20002 23.3375 7.61252C23.3375 8.03127 23.5 8.41877 23.7938 8.71252C24.1 9.01252 24.5 9.16878 24.8938 9.16878C25.3 9.16253 25.7 9.01252 26 8.71252ZM24.4563 8.05002C24.2125 7.80627 24.2125 7.41252 24.4563 7.17502C24.575 7.05627 24.7375 6.99377 24.8938 6.99377C25.05 6.99377 25.2125 7.05627 25.3313 7.17502C25.575 7.41877 25.575 7.81252 25.3313 8.05002C25.0938 8.28752 24.7 8.28752 24.4563 8.05002Z" fill="#06555A"/>
<path d="M31.7875 6.76875L25.7375 0.71875C25.275 0.25625 24.6563 0 24 0C23.3438 0 22.7313 0.25625 22.2688 0.7125L10.2875 12.7C8.45004 14.5375 8.24379 16.175 8.04379 17.7563C7.81879 19.5312 7.58754 21.3687 5.08754 23.8687L1.36879 27.5938C0.631287 28.3312 0.343787 29.2562 0.581287 30.1437C0.812537 30.9937 1.50629 31.6875 2.35629 31.9188C2.56254 31.975 2.76879 32 2.97504 32C3.66254 32 4.34379 31.7 4.90629 31.1375L8.63129 27.4188C11.1313 24.9188 12.9688 24.6875 14.7438 24.4625C16.325 24.2625 17.9625 24.0562 19.8 22.2188L23.3313 18.6875C23.5125 18.5063 23.5125 18.2062 23.3313 18.025C23.15 17.8438 22.85 17.8438 22.6688 18.025L19.1375 21.5562C17.525 23.1687 16.1813 23.3375 14.625 23.5312C13.7938 23.6375 12.9125 23.75 11.9438 24.0875C11.225 22.3125 10.175 21.2125 8.45629 20.4438C8.76879 19.5188 8.87504 18.675 8.97504 17.8813C9.16879 16.325 9.33754 14.9812 10.95 13.3687L22.6063 1.70625L30.7938 9.89375C28.9188 11.7688 26.5688 14.1187 24.2813 16.4062L24.0375 16.65C23.8563 16.8312 23.8563 17.1313 24.0375 17.3125C24.2188 17.4937 24.5188 17.4937 24.7 17.3125L24.9438 17.0688C27.3625 14.65 29.8625 12.15 31.7875 10.225C32.7375 9.275 32.7375 7.71875 31.7875 6.76875ZM4.24379 30.475C3.74379 30.975 3.16254 31.1625 2.60004 31.0125C2.06879 30.8688 1.63129 30.4312 1.48754 29.9C1.33754 29.3375 1.53129 28.7563 2.02504 28.2563L3.01879 27.2625L5.23754 29.4813L4.24379 30.475ZM5.90004 28.8125L3.68754 26.6L5.35004 24.9375L7.56879 27.1562L5.90004 28.8125ZM11.0813 24.4438C10.2125 24.8625 9.26879 25.5 8.23754 26.4875L6.01254 24.2625C7.04379 23.1875 7.68754 22.2062 8.11254 21.3062C9.58129 21.9812 10.4563 22.9062 11.0813 24.4438ZM31.4 9.18125L23.3188 1.1C23.8875 0.8125 24.5938 0.90625 25.0688 1.375L31.1188 7.425C31.5938 7.9 31.6875 8.6125 31.4 9.18125Z" fill="#06555A"/>
</g>
<defs>
<clipPath id="clip0">
<rect width="32" height="32" fill="white" transform="translate(0.5)"/>
</clipPath>
</defs>
</svg>
