<svg width="33" height="32" viewBox="0 0 33 32" fill="none" xmlns="http://www.w3.org/2000/svg">
<g clip-path="url(#clip0)">
<path d="M26.2187 32C26.1375 32 26.0562 31.9813 25.9812 31.9313C23.7062 30.5813 22.65 28.4125 22.3937 27.8063C20.8687 26.8563 19.9125 25.5438 19.3875 24.6438C19.025 25.0375 18.6812 25.3938 18.3437 25.7313C17.0437 27.0313 15.2375 27.6313 13.95 27.9063C13.2125 28.0625 12.575 28.1313 12.1687 28.1563C11.9125 28.175 11.7312 28.1813 11.5937 28.1813L7.91873 31.8625C7.73748 32.0438 7.43748 32.0438 7.25623 31.8625C7.07498 31.6813 7.07498 31.3813 7.25623 31.2L11.0812 27.375C11.1937 27.2625 11.35 27.2188 11.4937 27.2438C12.0375 27.2813 15.6687 27.0875 17.6812 25.075C18 24.7563 18.325 24.4188 18.6687 24.05C17.7625 24.1313 16.3375 23.9875 15.15 22.8L12.7062 20.3563C12.3875 20.9063 12.025 21.3938 11.6187 21.8C11.4375 21.9813 11.1375 21.9813 10.9562 21.8C10.775 21.6188 10.775 21.3188 10.9562 21.1375C11.3625 20.7313 11.7187 20.2375 12.0187 19.6625L11.7187 19.3625C11.1187 18.7625 10.8625 18.1625 10.9562 17.575C11.0312 17.1063 11.3312 16.6813 11.8437 16.3188C11.3062 15.6938 11.4 14.8625 12.0937 14.1688C12.3562 13.9063 12.6375 13.7313 12.925 13.6438C12.8875 13.5063 12.875 13.3563 12.8875 13.2125C12.7562 12.4063 12.5437 11.6125 12.25 10.8375C11.0312 11.3938 9.74998 11.175 9.68123 11.1625C9.42498 11.1188 9.25623 10.875 9.29998 10.6188C9.34373 10.3625 9.58748 10.1938 9.84373 10.2375C9.86248 10.2375 11.55 10.5188 12.5875 9.48125L14.9375 7.13125C15.7187 6.35 15.6125 5.48125 15.1812 5.0125C14.9062 4.7125 14.4437 4.53125 13.9625 4.93125C12.3 6.3125 10.9062 6.93125 10.2187 7.18125C9.93123 7.2875 9.68123 7.46875 9.50623 7.7125L7.65623 10.2688C7.50623 10.4813 7.21248 10.525 6.99998 10.375C6.78748 10.225 6.74373 9.93125 6.89373 9.71875L8.74373 7.1625C9.03123 6.7625 9.43123 6.46875 9.89998 6.3C10.525 6.075 11.8062 5.5 13.3625 4.21249C14.15 3.55624 15.1875 3.62499 15.875 4.38125C16.1812 4.7125 16.3812 5.15 16.4375 5.63125L18.125 3.93749C18.3062 3.75624 18.6062 3.75624 18.7875 3.93749C18.9687 4.11874 18.9687 4.41875 18.7875 4.6L13.2437 10.1438C13.1812 10.2063 13.1187 10.2625 13.05 10.3188C13.2625 10.8563 13.4375 11.4063 13.575 11.9625C14.0625 11.525 14.6062 11.3813 15.1 11.5313C15.1937 11.2563 15.3687 10.9875 15.6187 10.7375C15.9437 10.4125 16.3062 10.2125 16.6625 10.1625C16.9687 10.1188 17.4312 10.15 17.8625 10.5813L19.0062 11.725C19.175 11.425 19.4187 11.1625 19.7125 10.9688C20.0937 10.7188 20.4937 10.6375 20.8125 10.7375C20.9375 10.775 21.0625 10.8313 21.1937 10.9L26.8812 5.2125C27.9687 4.125 28.275 3.13124 27.7 2.54999C27.45 2.29999 27.125 2.21249 26.7437 2.28749C26.2375 2.38749 25.65 2.76249 25.0375 3.36874L23.85 4.55625L18.75 9.65625C18.5687 9.8375 18.2687 9.8375 18.0875 9.65625C17.9062 9.475 17.9062 9.175 18.0875 8.99375L23.1875 3.89374C24.275 2.80624 24.575 1.81249 24 1.23749C23.75 0.987492 23.425 0.899992 23.0437 0.974992C22.5437 1.06249 21.95 1.43749 21.3437 2.04374L20.1 3.28749C19.9187 3.46874 19.6187 3.46874 19.4375 3.28749C19.2562 3.10624 19.2562 2.80624 19.4375 2.62499L20.6812 1.38124C21.4375 0.624991 22.1687 0.174991 22.8687 0.0374908C23.5562 -0.0937593 24.1937 0.0874908 24.6687 0.562491C24.8625 0.756241 25.2437 1.23124 25.2375 1.96249C25.6937 1.64374 26.1375 1.43749 26.5625 1.35624C27.25 1.22499 27.8875 1.40624 28.3625 1.88124C28.675 2.19374 29.4562 3.21874 28.3812 4.85625C29.1375 4.83125 29.6312 5.225 29.8312 5.425C30.2 5.79375 31.2437 7.18125 29.0125 9.4125L28.2687 10.1562C28.7562 10.175 29.2 10.3688 29.55 10.7188C30.0187 11.1875 30.2062 11.8313 30.075 12.5188C29.9375 13.2188 29.4875 13.95 28.7312 14.7063L26.3562 17.0813C26.175 17.2625 25.875 17.2625 25.6937 17.0813C25.5125 16.9 25.5125 16.6 25.6937 16.4188L28.0687 14.0438C28.6812 13.4313 29.0562 12.8438 29.15 12.3375C29.225 11.9563 29.1375 11.6313 28.8875 11.3813C28.6375 11.1313 28.3125 11.0438 27.9312 11.1188C27.425 11.2188 26.8375 11.5938 26.225 12.2L24.2937 14.1313C24.8625 15.2563 24.8875 16.6625 24.4 18.6625C25.1687 19.05 26.9437 20.0938 28.175 22.0375C28.7812 22.2875 30.9562 23.3188 32.3312 25.5813C32.4625 25.8 32.3937 26.0938 32.175 26.225C31.9562 26.3563 31.6625 26.2875 31.5312 26.0688C30.1312 23.7688 27.725 22.8625 27.7 22.8563C27.6 22.8188 27.5125 22.75 27.4625 22.6563C26.05 20.3313 23.7062 19.3688 23.6812 19.3563C23.4625 19.2688 23.3437 19.0313 23.4062 18.8C24.1625 15.9875 23.7375 14.875 23.2312 14.1563C22.225 12.7375 21.125 11.8125 20.5562 11.625C20.5062 11.6188 20.3437 11.6625 20.1562 11.8063C20.05 11.8875 19.8312 12.0938 19.7312 12.425L20.6437 13.3375C20.9812 13.675 22.025 14.3625 22.4 14.6C22.6187 14.7375 22.6812 15.025 22.5437 15.2438C22.4062 15.4625 22.1187 15.525 21.9 15.3875C21.75 15.2938 20.45 14.4625 19.9812 13.9938L18.8937 12.9063L18.8875 12.9L17.2 11.25C17.0312 11.0813 16.8937 11.0813 16.8 11.0938C16.6375 11.1188 16.4562 11.2313 16.275 11.4063C16.1 11.5813 15.9875 11.7688 15.9625 11.9313C15.95 12.0188 15.95 12.1563 16.1187 12.3313L18.0375 14.25C18.2187 14.4313 18.2187 14.7313 18.0375 14.9125C17.8562 15.0938 17.5562 15.0938 17.375 14.9125L15.4562 12.9938L15.0437 12.5813C14.6625 12.2 14.2562 12.6063 14.125 12.7375C13.5875 13.275 13.875 13.5625 13.9687 13.6563L14.3187 14.0063L14.325 14.0125C14.325 14.0125 14.325 14.0125 14.3312 14.0188L16.3 15.9875C16.4812 16.1688 16.4812 16.4688 16.3 16.65C16.1187 16.8313 15.8187 16.8313 15.6375 16.65L13.6625 14.675C13.2812 14.3 12.875 14.7 12.7437 14.8313C12.2062 15.3688 12.4937 15.6563 12.5875 15.75L12.9062 16.0688C12.9125 16.075 12.9187 16.0813 12.9187 16.0813L14.9062 18.0688C15.0875 18.25 15.0875 18.55 14.9062 18.7313C14.725 18.9125 14.425 18.9125 14.2437 18.7313L12.5 16.9875C12.1937 17.1813 11.9125 17.4313 11.8687 17.7125C11.8125 18.0563 12.1125 18.4313 12.3687 18.6875L15.8062 22.125C17.225 23.5438 19.025 23.0375 19.1437 23.0063C19.25 22.9625 19.3625 22.9625 19.4687 23C19.6 23.0438 19.7062 23.15 19.7562 23.2813C19.7625 23.3063 20.6937 25.7063 23.0062 27.0813C23.1 27.1375 23.1687 27.2188 23.2062 27.3188C23.2125 27.3438 24.1437 29.7438 26.4562 31.1188C26.6812 31.25 26.75 31.5375 26.6187 31.7625C26.5375 31.9188 26.3812 32 26.2187 32ZM21.9812 11.4313C22.6125 11.9438 23.25 12.6438 23.7687 13.3313L28.35 8.75C29.4375 7.6625 29.7437 6.66875 29.1687 6.0875C28.5937 5.5125 27.6 5.81875 26.5062 6.90625L21.9812 11.4313ZM1.07498 25.4875C0.956226 25.4875 0.837476 25.4438 0.743726 25.35C0.562476 25.1688 0.562476 24.8688 0.743726 24.6875L4.38123 21.05C3.43748 17.2438 4.11873 13.55 5.26873 11.9563L5.88748 11.1C6.03748 10.8875 6.33123 10.8438 6.54373 10.9938C6.75623 11.1438 6.79998 11.4375 6.64998 11.65L6.03123 12.5063C5.12498 13.75 4.32498 17.2313 5.35623 21.075C5.39998 21.2375 5.35623 21.4125 5.23748 21.525L1.41248 25.35C1.31248 25.4438 1.19373 25.4875 1.07498 25.4875Z" fill="#06555A"/>
</g>
<defs>
<clipPath id="clip0">
<rect width="31.7875" height="32" fill="white" transform="translate(0.606262)"/>
</clipPath>
</defs>
</svg>
