<svg width="27" height="32" viewBox="0 0 27 32" fill="none" xmlns="http://www.w3.org/2000/svg">
<g clip-path="url(#clip0)">
<path d="M7.64063 19.5625C7.19063 19.5625 6.74688 19.4563 6.33438 19.25L6.32188 19.2438C5.39063 18.7688 4.72813 17.9625 4.50313 17.025C3.87813 14.3875 6.32188 11.725 7.09063 10.975C7.39063 10.6813 7.88438 10.675 8.18438 10.975C8.94688 11.7313 11.3969 14.3938 10.7719 17.025C10.5531 17.9625 9.89062 18.7688 8.95313 19.2438L8.94063 19.25C8.54063 19.4625 8.09063 19.5625 7.64063 19.5625ZM7.64063 11.7625C7.24688 12.1625 6.62188 12.8625 6.11563 13.7313C5.44063 14.875 5.20938 15.9188 5.42813 16.8188C5.58438 17.4875 6.07188 18.0688 6.75313 18.4125L6.75938 18.4188C7.30938 18.7 7.97188 18.7 8.52188 18.4188L8.52813 18.4125C9.21563 18.0625 9.69688 17.4813 9.85313 16.8188C10.0656 15.9125 9.83437 14.875 9.16563 13.7313C8.66563 12.8625 8.03438 12.1563 7.64063 11.7625Z" fill="#06555A"/>
<path d="M25.9219 23.2812C25.9219 23.2812 25.9219 21.0625 25.9156 20.8375C25.8781 19.8312 25.1656 19.2875 24.3969 18.775C23.5156 18.1812 22.6281 17.6375 22.2594 16.5938C22.1844 16.3813 22.0219 16.2125 21.8094 16.1313C21.5969 16.05 21.3531 16.0625 21.1531 16.1688C20.9781 16.2625 20.8094 16.3563 20.6469 16.45C20.2719 16.6625 19.9219 16.8563 19.5531 17.0125C18.4719 17.4688 17.2844 17.5688 16.1406 17.7188C15.6406 17.7812 15.1406 17.8563 14.6469 17.9688C14.3844 18.0312 14.0781 18.125 13.7781 18.2625L14.5219 9.89375C14.5469 9.6375 14.3531 9.40625 14.0969 9.3875C13.8406 9.3625 13.6094 9.55625 13.5906 9.8125L12.7906 18.8687C12.2156 19.3562 11.9344 20.0688 11.9469 20.8188C11.9469 20.9875 11.9531 23.2938 11.9531 23.2938C11.4656 23.3 11.0656 23.7063 11.0656 24.1938V26.9312H3.22187L1.32187 3.45H14.0031L13.7281 7.6375C13.7094 7.89375 13.9094 8.11875 14.1656 8.1375C14.4219 8.15625 14.6469 7.95625 14.6656 7.7C14.6656 7.7 15.1094 0.9625 15.1031 0.925C15.0969 0.69375 15.0094 0.46875 14.8531 0.3C14.6781 0.1125 14.4406 0.00625 14.1844 0C14.1781 0 14.1719 0 14.1656 0H1.12812C1.12187 0 1.11562 0 1.10312 0C0.853116 0.00625 0.609366 0.1125 0.434366 0.3C0.146866 0.60625 0.184366 0.95625 0.209366 1.3375L2.31562 27.4125V30.7563C2.31562 31.4438 2.87187 32 3.55937 32H11.7156C11.9094 32 12.0969 31.9562 12.2594 31.875C12.4719 31.9562 12.6969 32 12.9406 32H24.9156C25.9594 32 26.8031 31.15 26.8031 30.1125V24.1875C26.8094 23.6938 26.4156 23.2938 25.9219 23.2812ZM1.15937 1.4875L1.12187 0.94375C1.12187 0.9375 1.12187 0.9375 1.12812 0.9375H14.1594C14.1594 0.9375 14.1656 0.94375 14.1656 0.95625L14.0469 2.50625H1.24687L1.15937 1.4875ZM9.10312 31.0625H6.17812V30.2125C6.17812 30.0562 6.30312 29.9375 6.45312 29.9375H8.82187C8.97812 29.9375 9.09687 30.0625 9.09687 30.2125L9.10312 31.0625ZM10.0469 31.0625V30.2125C10.0469 29.5437 9.50312 28.9937 8.82812 28.9937H6.45937C5.79062 28.9937 5.24062 29.5375 5.24062 30.2125V31.0625H3.55937C3.39062 31.0625 3.25312 30.925 3.25312 30.7563V27.8625H11.0531V30.1125C11.0531 30.4562 11.1469 30.7812 11.3094 31.0625H10.0469ZM13.2594 19.7C13.6156 19.3188 14.3281 19 14.8531 18.8875C15.4469 18.7563 16.0406 18.6813 16.6656 18.6063C17.0031 18.5625 17.3531 18.5187 17.6969 18.4688C18.5969 18.3312 19.3031 18.1438 19.9156 17.8875C20.3344 17.7125 20.7281 17.4937 21.1031 17.275C21.2156 17.2125 21.3281 17.15 21.4406 17.0875C21.6656 17.6125 21.9906 18.1125 22.4219 18.4875C23.0219 19.0187 23.7469 19.4625 24.4031 19.9188C24.7656 20.175 24.9531 20.475 24.9719 20.8438H12.8719C12.8719 20.825 12.8719 20.8125 12.8719 20.7938C12.8719 20.325 12.9844 19.9875 13.2594 19.7ZM24.9844 21.7875V23.2812H12.8844V21.7875H24.9844ZM25.8719 30.1125C25.8719 30.6375 25.4469 31.0625 24.9219 31.0625H12.9469C12.4219 31.0625 11.9969 30.6375 11.9969 30.1125V24.225H25.8719V30.1125Z" fill="#06555A"/>
<path d="M14.8156 29.7562H16.5531C16.8094 29.7562 17.0219 29.5437 17.0219 29.2875C17.0219 29.0312 16.8094 28.8187 16.5531 28.8187H14.8156C14.8031 28.8187 14.7906 28.8062 14.7906 28.7937V26.5C14.7906 26.4875 14.8031 26.475 14.8156 26.475H23.0531C23.0656 26.475 23.0781 26.4875 23.0781 26.5V28.7937C23.0781 28.8062 23.0656 28.8187 23.0531 28.8187H18.7281C18.4719 28.8187 18.2594 29.0312 18.2594 29.2875C18.2594 29.5437 18.4719 29.7562 18.7281 29.7562H23.0531C23.5843 29.7562 24.0218 29.325 24.0218 28.7875V26.4937C24.0218 25.9625 23.5906 25.525 23.0531 25.525H14.8156C14.2844 25.525 13.8469 25.9562 13.8469 26.4937V28.7875C13.8469 29.3187 14.2844 29.7562 14.8156 29.7562Z" fill="#06555A"/>
</g>
<defs>
<clipPath id="clip0">
<rect width="26.6187" height="32" fill="white" transform="translate(0.190613)"/>
</clipPath>
</defs>
</svg>
