<svg width="46" height="42" viewBox="0 0 46 42" fill="none" xmlns="http://www.w3.org/2000/svg">
<path d="M39.357 40.5436C36.5818 40.081 33.6255 40.2419 31.0916 39.5783C30.6089 38.3113 30.6693 36.079 28.9599 35.7371C25.8025 35.174 23.7512 39.1761 20.6944 36.26C19.3671 35.9382 18.9045 34.5305 17.5974 34.0277C14.3394 33.525 14.3394 28.618 11.4837 27.4516C10.3978 27.0091 10.5385 27.0292 10.438 26.0237C10.0559 21.5592 1.66976 18.1605 4.56569 13.535C5.169 12.5697 5.99354 10.9005 4.20369 10.619C1.70998 10.1162 1.70998 5.14891 1.1871 3.17807C0.704449 -1.84959 2.95684 6.97897 7.60239 1.95132C9.1509 1.348 7.28062 3.01718 8.20571 3.64061C9.895 5.12879 9.49278 5.04835 10.1967 6.91864C14.983 10.8402 21.4988 12.3485 25.0182 6.67731C25.8025 5.97344 26.808 6.63709 27.5521 6.21477C28.0549 5.93322 28.6984 5.95333 29.1408 6.31532C29.3218 6.45609 29.523 6.59687 29.7844 6.67731C31.5541 7.44151 33.0624 6.93875 34.3093 8.52749C36.9237 9.83468 38.5928 10.4782 37.7683 13.8166C35.4757 16.8734 37.5672 20.0911 37.8286 23.6909C37.3259 25.1791 40.2419 24.0127 40.3425 24.9176C37.527 29.6034 37.4666 27.1097 40.4832 31.5944C41.4687 33.1228 43.1378 32.3988 43.3993 33.8266C43.7814 34.6713 43.0172 35.5561 44.1434 36.1192C45.0886 36.3807 41.6295 36.6019 41.0463 39.4174C40.8653 40.2017 40.1413 40.6843 39.357 40.5436Z" fill="white"/>
<mask id="path-2-outside-1_682:3479" maskUnits="userSpaceOnUse" x="-0.397095" y="0" width="46" height="42" fill="black">
<rect fill="white" x="-0.397095" width="46" height="42"/>
<path d="M39.5984 41.0065C39.4978 41.0065 39.3771 41.0065 39.2565 40.9864C38.0901 40.7853 36.8834 40.7049 35.717 40.6244C34.3495 40.5239 32.9216 40.4233 31.6144 40.1619C31.0312 40.0412 30.5687 39.5787 30.4078 39.0156C30.3676 38.8547 30.3274 38.6737 30.2871 38.5128C29.9855 37.2257 29.7442 36.3811 28.8593 36.2001C27.7331 35.999 26.7477 36.4615 25.722 36.9643C24.1735 37.7084 22.4239 38.553 20.3525 36.5822C20.1514 36.3811 20.1514 36.0794 20.3324 35.8783C20.5335 35.6772 20.8352 35.6772 21.0363 35.8582C22.5848 37.3464 23.7713 36.7833 25.2595 36.0593C26.3455 35.5364 27.5722 34.9331 29.0202 35.2147C30.6089 35.5364 30.9709 37.0648 31.2525 38.2916C31.2927 38.4525 31.3329 38.6134 31.3731 38.7743C31.4334 38.9754 31.5943 39.1563 31.7954 39.1966C33.0423 39.458 34.3696 39.5385 35.7572 39.639C36.9639 39.7194 38.1906 39.7999 39.3973 40.001C39.9201 40.0814 40.4028 39.7597 40.5033 39.277C40.9055 37.4067 42.4138 36.542 43.2987 36.1196C42.8965 35.6571 42.9166 35.1141 42.9568 34.7119C42.9769 34.4304 42.9971 34.189 42.8965 33.9879L42.8764 33.9276L42.8563 33.8673C42.7758 33.4449 42.5747 33.3645 41.9513 33.1634C41.3681 32.9824 40.5838 32.721 40.0006 31.816C39.3369 30.8306 38.814 30.187 38.4521 29.7245C37.4264 28.4374 37.4264 28.1961 38.3917 26.8487C38.6934 26.4062 39.1157 25.8431 39.6386 24.9985C39.4576 24.9784 39.2163 24.9784 39.0554 24.9784C38.4118 24.9784 37.7281 24.9784 37.3862 24.4957C37.2052 24.2544 37.165 23.9527 37.2655 23.5907C37.1851 22.5651 36.9438 21.5395 36.7024 20.554C36.1594 18.2413 35.5963 15.8482 37.2454 13.5556C37.889 10.8406 36.7829 10.2775 34.3696 9.091L34.0277 8.93011C33.7864 8.80945 33.6858 8.50779 33.8065 8.24635C33.9272 8.00503 34.2288 7.90447 34.4903 8.02514L34.8321 8.18602C37.2052 9.37255 39.0956 10.2976 38.2107 13.8773L38.1906 13.9779L38.1303 14.0583C36.6823 15.9889 37.1449 18 37.6878 20.3127C37.9292 21.3585 38.1906 22.4646 38.2711 23.5907V23.6913L38.2308 23.7918C38.2107 23.8321 38.2107 23.8723 38.2107 23.8924C38.3716 23.9527 38.7939 23.9527 39.0353 23.9527C39.719 23.9527 40.6642 23.9527 40.7849 24.7974L40.805 24.9784L40.7246 25.1191C40.0609 26.2051 39.5782 26.909 39.1961 27.4118C38.9146 27.814 38.6733 28.1357 38.6733 28.2564C38.6733 28.3771 38.9347 28.6988 39.2364 29.0608C39.6185 29.5435 40.1413 30.2071 40.8452 31.2328C41.2273 31.8361 41.7301 31.997 42.2731 32.178C42.8764 32.3791 43.6205 32.6204 43.8417 33.6058C44.0227 34.0281 43.9825 34.4304 43.9624 34.7521C43.9221 35.2147 43.9221 35.3957 44.2841 35.5968C44.6461 35.7174 44.7467 35.9387 44.7467 36.1196C44.7668 36.542 44.4249 36.7029 44.0026 36.8839C43.2384 37.2257 41.8105 37.8492 41.4686 39.458C41.3279 40.3831 40.5234 41.0065 39.5984 41.0065ZM17.5973 34.4907C17.5772 34.4907 17.537 34.4907 17.5169 34.4907C15.5662 34.189 14.621 32.4997 13.716 30.8507C12.9518 29.463 12.2278 28.1558 10.981 27.7335C9.77432 27.3313 9.87487 26.3258 9.9151 25.642C9.95532 25.1795 9.99554 24.7572 9.75421 24.4153C9.05034 23.4299 8.06492 22.4645 7.11972 21.5395C4.6059 19.1061 1.99152 16.552 4.14335 13.1936C4.90755 12.007 4.82711 11.5244 4.74667 11.3635C4.66623 11.2026 4.46512 11.0819 4.12324 11.0417C1.85074 10.5993 1.34798 7.34138 1.0061 4.98844C0.905543 4.32479 0.80499 3.70136 0.704437 3.25892L0.684326 3.17848C0.543552 1.91151 0.543552 1.3082 1.02621 1.06687C1.46864 0.845651 1.83063 1.20764 2.27306 1.65008C2.83616 2.19306 3.68081 3.0176 4.72656 2.99749C5.51087 2.97738 6.35552 2.49472 7.22027 1.54952L7.30072 1.46908L7.42138 1.40875C7.70293 1.3082 8.2258 1.10709 8.56768 1.42886C8.88945 1.73052 8.72857 2.15284 8.5878 2.49472C8.46713 2.79638 8.36658 3.07793 8.46713 3.13826L8.52746 3.17848C9.87488 4.36501 9.99554 4.66667 10.3173 5.65209C10.3978 5.89341 10.4782 6.17496 10.619 6.55706C13.6758 9.05078 17.0141 10.1971 19.7894 9.75465C21.7804 9.43288 23.3892 8.28657 24.5757 6.35596L24.616 6.29562L24.6763 6.2554C25.2796 5.71242 25.9433 5.77275 26.4862 5.79286C26.808 5.81297 27.1097 5.83308 27.3108 5.73253C27.9744 5.37054 28.8191 5.39065 29.5028 5.79286C29.6637 5.89341 29.8246 5.99397 29.9855 6.09452C30.2871 6.29562 30.6089 6.49673 30.8301 6.53695C31.0916 6.59728 31.2726 6.85872 31.2122 7.14027C31.1519 7.40171 30.8905 7.5827 30.6089 7.52237C30.2268 7.44193 29.8447 7.2006 29.4626 6.93916C29.3218 6.83861 29.161 6.75817 29.0202 6.65762C28.6381 6.4364 28.1755 6.41629 27.8135 6.61739C27.351 6.85872 26.8683 6.83861 26.446 6.8185C25.9835 6.79839 25.6818 6.77828 25.4204 6.97939C24.073 9.13122 22.2429 10.3982 19.9905 10.7803C16.8734 11.2428 13.1931 9.97587 9.85476 7.24082L9.75421 7.16038L9.71399 7.03972C9.5531 6.57717 9.43244 6.23529 9.352 5.97386C9.09056 5.16943 9.05034 5.00855 7.88392 3.98291C7.42138 3.64103 7.38116 3.15837 7.4616 2.73605C6.55662 3.56058 5.65165 3.98291 4.74667 4.00302C3.31882 4.04324 2.27306 3.03771 1.62952 2.41428C1.62952 2.57516 1.64964 2.77627 1.66975 3.03771C1.79041 3.52036 1.89096 4.12368 1.99152 4.82755C2.31329 6.89894 2.73561 9.75465 4.30424 10.0563C4.988 10.1569 5.45054 10.4786 5.67176 10.9613C5.97342 11.6249 5.7522 12.55 4.988 13.7365C3.27859 16.4113 5.39021 18.4625 7.80348 20.8356C8.76879 21.7808 9.77432 22.7662 10.5385 23.8321C10.981 24.4555 10.9407 25.1594 10.8804 25.7225C10.8201 26.4666 10.8402 26.6274 11.2625 26.7682C12.8714 27.3112 13.7361 28.8597 14.5606 30.3479C15.3852 31.8361 16.1896 33.2639 17.6376 33.4852C17.9191 33.5254 18.1001 33.7868 18.0599 34.0483C18.0599 34.3097 17.8387 34.4907 17.5973 34.4907Z"/>
</mask>
<path d="M39.5984 41.0065C39.4978 41.0065 39.3771 41.0065 39.2565 40.9864C38.0901 40.7853 36.8834 40.7049 35.717 40.6244C34.3495 40.5239 32.9216 40.4233 31.6144 40.1619C31.0312 40.0412 30.5687 39.5787 30.4078 39.0156C30.3676 38.8547 30.3274 38.6737 30.2871 38.5128C29.9855 37.2257 29.7442 36.3811 28.8593 36.2001C27.7331 35.999 26.7477 36.4615 25.722 36.9643C24.1735 37.7084 22.4239 38.553 20.3525 36.5822C20.1514 36.3811 20.1514 36.0794 20.3324 35.8783C20.5335 35.6772 20.8352 35.6772 21.0363 35.8582C22.5848 37.3464 23.7713 36.7833 25.2595 36.0593C26.3455 35.5364 27.5722 34.9331 29.0202 35.2147C30.6089 35.5364 30.9709 37.0648 31.2525 38.2916C31.2927 38.4525 31.3329 38.6134 31.3731 38.7743C31.4334 38.9754 31.5943 39.1563 31.7954 39.1966C33.0423 39.458 34.3696 39.5385 35.7572 39.639C36.9639 39.7194 38.1906 39.7999 39.3973 40.001C39.9201 40.0814 40.4028 39.7597 40.5033 39.277C40.9055 37.4067 42.4138 36.542 43.2987 36.1196C42.8965 35.6571 42.9166 35.1141 42.9568 34.7119C42.9769 34.4304 42.9971 34.189 42.8965 33.9879L42.8764 33.9276L42.8563 33.8673C42.7758 33.4449 42.5747 33.3645 41.9513 33.1634C41.3681 32.9824 40.5838 32.721 40.0006 31.816C39.3369 30.8306 38.814 30.187 38.4521 29.7245C37.4264 28.4374 37.4264 28.1961 38.3917 26.8487C38.6934 26.4062 39.1157 25.8431 39.6386 24.9985C39.4576 24.9784 39.2163 24.9784 39.0554 24.9784C38.4118 24.9784 37.7281 24.9784 37.3862 24.4957C37.2052 24.2544 37.165 23.9527 37.2655 23.5907C37.1851 22.5651 36.9438 21.5395 36.7024 20.554C36.1594 18.2413 35.5963 15.8482 37.2454 13.5556C37.889 10.8406 36.7829 10.2775 34.3696 9.091L34.0277 8.93011C33.7864 8.80945 33.6858 8.50779 33.8065 8.24635C33.9272 8.00503 34.2288 7.90447 34.4903 8.02514L34.8321 8.18602C37.2052 9.37255 39.0956 10.2976 38.2107 13.8773L38.1906 13.9779L38.1303 14.0583C36.6823 15.9889 37.1449 18 37.6878 20.3127C37.9292 21.3585 38.1906 22.4646 38.2711 23.5907V23.6913L38.2308 23.7918C38.2107 23.8321 38.2107 23.8723 38.2107 23.8924C38.3716 23.9527 38.7939 23.9527 39.0353 23.9527C39.719 23.9527 40.6642 23.9527 40.7849 24.7974L40.805 24.9784L40.7246 25.1191C40.0609 26.2051 39.5782 26.909 39.1961 27.4118C38.9146 27.814 38.6733 28.1357 38.6733 28.2564C38.6733 28.3771 38.9347 28.6988 39.2364 29.0608C39.6185 29.5435 40.1413 30.2071 40.8452 31.2328C41.2273 31.8361 41.7301 31.997 42.2731 32.178C42.8764 32.3791 43.6205 32.6204 43.8417 33.6058C44.0227 34.0281 43.9825 34.4304 43.9624 34.7521C43.9221 35.2147 43.9221 35.3957 44.2841 35.5968C44.6461 35.7174 44.7467 35.9387 44.7467 36.1196C44.7668 36.542 44.4249 36.7029 44.0026 36.8839C43.2384 37.2257 41.8105 37.8492 41.4686 39.458C41.3279 40.3831 40.5234 41.0065 39.5984 41.0065ZM17.5973 34.4907C17.5772 34.4907 17.537 34.4907 17.5169 34.4907C15.5662 34.189 14.621 32.4997 13.716 30.8507C12.9518 29.463 12.2278 28.1558 10.981 27.7335C9.77432 27.3313 9.87487 26.3258 9.9151 25.642C9.95532 25.1795 9.99554 24.7572 9.75421 24.4153C9.05034 23.4299 8.06492 22.4645 7.11972 21.5395C4.6059 19.1061 1.99152 16.552 4.14335 13.1936C4.90755 12.007 4.82711 11.5244 4.74667 11.3635C4.66623 11.2026 4.46512 11.0819 4.12324 11.0417C1.85074 10.5993 1.34798 7.34138 1.0061 4.98844C0.905543 4.32479 0.80499 3.70136 0.704437 3.25892L0.684326 3.17848C0.543552 1.91151 0.543552 1.3082 1.02621 1.06687C1.46864 0.845651 1.83063 1.20764 2.27306 1.65008C2.83616 2.19306 3.68081 3.0176 4.72656 2.99749C5.51087 2.97738 6.35552 2.49472 7.22027 1.54952L7.30072 1.46908L7.42138 1.40875C7.70293 1.3082 8.2258 1.10709 8.56768 1.42886C8.88945 1.73052 8.72857 2.15284 8.5878 2.49472C8.46713 2.79638 8.36658 3.07793 8.46713 3.13826L8.52746 3.17848C9.87488 4.36501 9.99554 4.66667 10.3173 5.65209C10.3978 5.89341 10.4782 6.17496 10.619 6.55706C13.6758 9.05078 17.0141 10.1971 19.7894 9.75465C21.7804 9.43288 23.3892 8.28657 24.5757 6.35596L24.616 6.29562L24.6763 6.2554C25.2796 5.71242 25.9433 5.77275 26.4862 5.79286C26.808 5.81297 27.1097 5.83308 27.3108 5.73253C27.9744 5.37054 28.8191 5.39065 29.5028 5.79286C29.6637 5.89341 29.8246 5.99397 29.9855 6.09452C30.2871 6.29562 30.6089 6.49673 30.8301 6.53695C31.0916 6.59728 31.2726 6.85872 31.2122 7.14027C31.1519 7.40171 30.8905 7.5827 30.6089 7.52237C30.2268 7.44193 29.8447 7.2006 29.4626 6.93916C29.3218 6.83861 29.161 6.75817 29.0202 6.65762C28.6381 6.4364 28.1755 6.41629 27.8135 6.61739C27.351 6.85872 26.8683 6.83861 26.446 6.8185C25.9835 6.79839 25.6818 6.77828 25.4204 6.97939C24.073 9.13122 22.2429 10.3982 19.9905 10.7803C16.8734 11.2428 13.1931 9.97587 9.85476 7.24082L9.75421 7.16038L9.71399 7.03972C9.5531 6.57717 9.43244 6.23529 9.352 5.97386C9.09056 5.16943 9.05034 5.00855 7.88392 3.98291C7.42138 3.64103 7.38116 3.15837 7.4616 2.73605C6.55662 3.56058 5.65165 3.98291 4.74667 4.00302C3.31882 4.04324 2.27306 3.03771 1.62952 2.41428C1.62952 2.57516 1.64964 2.77627 1.66975 3.03771C1.79041 3.52036 1.89096 4.12368 1.99152 4.82755C2.31329 6.89894 2.73561 9.75465 4.30424 10.0563C4.988 10.1569 5.45054 10.4786 5.67176 10.9613C5.97342 11.6249 5.7522 12.55 4.988 13.7365C3.27859 16.4113 5.39021 18.4625 7.80348 20.8356C8.76879 21.7808 9.77432 22.7662 10.5385 23.8321C10.981 24.4555 10.9407 25.1594 10.8804 25.7225C10.8201 26.4666 10.8402 26.6274 11.2625 26.7682C12.8714 27.3112 13.7361 28.8597 14.5606 30.3479C15.3852 31.8361 16.1896 33.2639 17.6376 33.4852C17.9191 33.5254 18.1001 33.7868 18.0599 34.0483C18.0599 34.3097 17.8387 34.4907 17.5973 34.4907Z" fill="#B3B3B3"/>
<path d="M39.5984 41.0065C39.4978 41.0065 39.3771 41.0065 39.2565 40.9864C38.0901 40.7853 36.8834 40.7049 35.717 40.6244C34.3495 40.5239 32.9216 40.4233 31.6144 40.1619C31.0312 40.0412 30.5687 39.5787 30.4078 39.0156C30.3676 38.8547 30.3274 38.6737 30.2871 38.5128C29.9855 37.2257 29.7442 36.3811 28.8593 36.2001C27.7331 35.999 26.7477 36.4615 25.722 36.9643C24.1735 37.7084 22.4239 38.553 20.3525 36.5822C20.1514 36.3811 20.1514 36.0794 20.3324 35.8783C20.5335 35.6772 20.8352 35.6772 21.0363 35.8582C22.5848 37.3464 23.7713 36.7833 25.2595 36.0593C26.3455 35.5364 27.5722 34.9331 29.0202 35.2147C30.6089 35.5364 30.9709 37.0648 31.2525 38.2916C31.2927 38.4525 31.3329 38.6134 31.3731 38.7743C31.4334 38.9754 31.5943 39.1563 31.7954 39.1966C33.0423 39.458 34.3696 39.5385 35.7572 39.639C36.9639 39.7194 38.1906 39.7999 39.3973 40.001C39.9201 40.0814 40.4028 39.7597 40.5033 39.277C40.9055 37.4067 42.4138 36.542 43.2987 36.1196C42.8965 35.6571 42.9166 35.1141 42.9568 34.7119C42.9769 34.4304 42.9971 34.189 42.8965 33.9879L42.8764 33.9276L42.8563 33.8673C42.7758 33.4449 42.5747 33.3645 41.9513 33.1634C41.3681 32.9824 40.5838 32.721 40.0006 31.816C39.3369 30.8306 38.814 30.187 38.4521 29.7245C37.4264 28.4374 37.4264 28.1961 38.3917 26.8487C38.6934 26.4062 39.1157 25.8431 39.6386 24.9985C39.4576 24.9784 39.2163 24.9784 39.0554 24.9784C38.4118 24.9784 37.7281 24.9784 37.3862 24.4957C37.2052 24.2544 37.165 23.9527 37.2655 23.5907C37.1851 22.5651 36.9438 21.5395 36.7024 20.554C36.1594 18.2413 35.5963 15.8482 37.2454 13.5556C37.889 10.8406 36.7829 10.2775 34.3696 9.091L34.0277 8.93011C33.7864 8.80945 33.6858 8.50779 33.8065 8.24635C33.9272 8.00503 34.2288 7.90447 34.4903 8.02514L34.8321 8.18602C37.2052 9.37255 39.0956 10.2976 38.2107 13.8773L38.1906 13.9779L38.1303 14.0583C36.6823 15.9889 37.1449 18 37.6878 20.3127C37.9292 21.3585 38.1906 22.4646 38.2711 23.5907V23.6913L38.2308 23.7918C38.2107 23.8321 38.2107 23.8723 38.2107 23.8924C38.3716 23.9527 38.7939 23.9527 39.0353 23.9527C39.719 23.9527 40.6642 23.9527 40.7849 24.7974L40.805 24.9784L40.7246 25.1191C40.0609 26.2051 39.5782 26.909 39.1961 27.4118C38.9146 27.814 38.6733 28.1357 38.6733 28.2564C38.6733 28.3771 38.9347 28.6988 39.2364 29.0608C39.6185 29.5435 40.1413 30.2071 40.8452 31.2328C41.2273 31.8361 41.7301 31.997 42.2731 32.178C42.8764 32.3791 43.6205 32.6204 43.8417 33.6058C44.0227 34.0281 43.9825 34.4304 43.9624 34.7521C43.9221 35.2147 43.9221 35.3957 44.2841 35.5968C44.6461 35.7174 44.7467 35.9387 44.7467 36.1196C44.7668 36.542 44.4249 36.7029 44.0026 36.8839C43.2384 37.2257 41.8105 37.8492 41.4686 39.458C41.3279 40.3831 40.5234 41.0065 39.5984 41.0065ZM17.5973 34.4907C17.5772 34.4907 17.537 34.4907 17.5169 34.4907C15.5662 34.189 14.621 32.4997 13.716 30.8507C12.9518 29.463 12.2278 28.1558 10.981 27.7335C9.77432 27.3313 9.87487 26.3258 9.9151 25.642C9.95532 25.1795 9.99554 24.7572 9.75421 24.4153C9.05034 23.4299 8.06492 22.4645 7.11972 21.5395C4.6059 19.1061 1.99152 16.552 4.14335 13.1936C4.90755 12.007 4.82711 11.5244 4.74667 11.3635C4.66623 11.2026 4.46512 11.0819 4.12324 11.0417C1.85074 10.5993 1.34798 7.34138 1.0061 4.98844C0.905543 4.32479 0.80499 3.70136 0.704437 3.25892L0.684326 3.17848C0.543552 1.91151 0.543552 1.3082 1.02621 1.06687C1.46864 0.845651 1.83063 1.20764 2.27306 1.65008C2.83616 2.19306 3.68081 3.0176 4.72656 2.99749C5.51087 2.97738 6.35552 2.49472 7.22027 1.54952L7.30072 1.46908L7.42138 1.40875C7.70293 1.3082 8.2258 1.10709 8.56768 1.42886C8.88945 1.73052 8.72857 2.15284 8.5878 2.49472C8.46713 2.79638 8.36658 3.07793 8.46713 3.13826L8.52746 3.17848C9.87488 4.36501 9.99554 4.66667 10.3173 5.65209C10.3978 5.89341 10.4782 6.17496 10.619 6.55706C13.6758 9.05078 17.0141 10.1971 19.7894 9.75465C21.7804 9.43288 23.3892 8.28657 24.5757 6.35596L24.616 6.29562L24.6763 6.2554C25.2796 5.71242 25.9433 5.77275 26.4862 5.79286C26.808 5.81297 27.1097 5.83308 27.3108 5.73253C27.9744 5.37054 28.8191 5.39065 29.5028 5.79286C29.6637 5.89341 29.8246 5.99397 29.9855 6.09452C30.2871 6.29562 30.6089 6.49673 30.8301 6.53695C31.0916 6.59728 31.2726 6.85872 31.2122 7.14027C31.1519 7.40171 30.8905 7.5827 30.6089 7.52237C30.2268 7.44193 29.8447 7.2006 29.4626 6.93916C29.3218 6.83861 29.161 6.75817 29.0202 6.65762C28.6381 6.4364 28.1755 6.41629 27.8135 6.61739C27.351 6.85872 26.8683 6.83861 26.446 6.8185C25.9835 6.79839 25.6818 6.77828 25.4204 6.97939C24.073 9.13122 22.2429 10.3982 19.9905 10.7803C16.8734 11.2428 13.1931 9.97587 9.85476 7.24082L9.75421 7.16038L9.71399 7.03972C9.5531 6.57717 9.43244 6.23529 9.352 5.97386C9.09056 5.16943 9.05034 5.00855 7.88392 3.98291C7.42138 3.64103 7.38116 3.15837 7.4616 2.73605C6.55662 3.56058 5.65165 3.98291 4.74667 4.00302C3.31882 4.04324 2.27306 3.03771 1.62952 2.41428C1.62952 2.57516 1.64964 2.77627 1.66975 3.03771C1.79041 3.52036 1.89096 4.12368 1.99152 4.82755C2.31329 6.89894 2.73561 9.75465 4.30424 10.0563C4.988 10.1569 5.45054 10.4786 5.67176 10.9613C5.97342 11.6249 5.7522 12.55 4.988 13.7365C3.27859 16.4113 5.39021 18.4625 7.80348 20.8356C8.76879 21.7808 9.77432 22.7662 10.5385 23.8321C10.981 24.4555 10.9407 25.1594 10.8804 25.7225C10.8201 26.4666 10.8402 26.6274 11.2625 26.7682C12.8714 27.3112 13.7361 28.8597 14.5606 30.3479C15.3852 31.8361 16.1896 33.2639 17.6376 33.4852C17.9191 33.5254 18.1001 33.7868 18.0599 34.0483C18.0599 34.3097 17.8387 34.4907 17.5973 34.4907Z" stroke="#B3B3B3" mask="url(#path-2-outside-1_682:3479)"/>
<path d="M17.8241 17.38C17.8245 17.38 17.8242 17.3799 17.8233 17.3797C17.8131 17.3775 17.7177 17.3566 17.5264 17.1862C17.3356 17.0162 17.1123 16.7535 16.8668 16.4045C16.3778 15.7094 15.848 14.7397 15.3572 13.6739C14.8676 12.6107 14.4245 11.4685 14.1049 10.4357C13.7813 9.39031 13.5981 8.50056 13.5981 7.92521C13.5981 5.60982 15.4835 3.71826 17.826 3.69922C20.1634 3.70025 22.0501 5.58762 22.0501 7.92521C22.0501 8.50233 21.871 9.39337 21.5538 10.4383C21.2403 11.4711 20.8047 12.613 20.3204 13.6756C19.8347 14.7411 19.3079 15.7094 18.8163 16.4031C18.5696 16.7513 18.3438 17.0129 18.1492 17.1823C17.9405 17.364 17.836 17.38 17.8241 17.38Z" fill="#B3B3B3" stroke="#B3B3B3"/>
<path d="M16.0342 7.84395C16.0342 8.82937 16.8186 9.61369 17.804 9.61369C18.7894 9.61369 19.5737 8.82937 19.5737 7.84395C19.5737 6.85853 18.7894 6.07422 17.804 6.07422C16.8387 6.07422 16.0342 6.87864 16.0342 7.84395Z" fill="white"/>
<path d="M37.1448 31.9542C37.1452 31.9542 37.1449 31.9541 37.1441 31.9539C37.1338 31.9517 37.0384 31.9309 36.8471 31.7604C36.6564 31.5904 36.433 31.3278 36.1875 30.9787C35.6985 30.2836 35.1687 29.314 34.6779 28.2481C34.1884 27.1849 33.7453 26.0427 33.4256 25.01C33.102 23.9645 32.9188 23.0748 32.9188 22.4994C32.9188 20.1626 34.8253 18.2734 37.1448 18.2734C39.4831 18.2734 41.3708 20.1612 41.3708 22.4994C41.3708 23.0765 41.1917 23.9676 40.8745 25.0126C40.561 26.0453 40.1254 27.1872 39.6411 28.2498C39.1554 29.3153 38.6286 30.2836 38.1371 30.9773C37.8903 31.3255 37.6646 31.5872 37.47 31.7565C37.2612 31.9382 37.1567 31.9542 37.1448 31.9542Z" fill="#B3B3B3" stroke="#B3B3B3"/>
<path d="M35.3751 22.258C35.3751 23.2434 36.1594 24.0277 37.1449 24.0277C38.1303 24.0277 38.9146 23.2434 38.9146 22.258C38.9146 21.2726 38.1303 20.4883 37.1449 20.4883C36.1795 20.4883 35.3751 21.2726 35.3751 22.258Z" fill="white"/>
</svg>
