<svg width="46" height="42" viewBox="0 0 46 42" fill="none" xmlns="http://www.w3.org/2000/svg">
<path d="M39.3571 40.5436C36.5818 40.081 33.6256 40.2419 31.0916 39.5783C30.609 38.3113 30.6693 36.079 28.9599 35.7371C25.8025 35.174 23.7513 39.1761 20.6945 36.26C19.3672 35.9382 18.9046 34.5305 17.5974 34.0277C14.3395 33.525 14.3395 28.618 11.4838 27.4516C10.3978 27.0091 10.5386 27.0292 10.438 26.0237C10.0559 21.5592 1.66982 18.1605 4.56575 13.535C5.16906 12.5697 5.9936 10.9005 4.20376 10.619C1.71004 10.1162 1.71004 5.14891 1.18716 3.17807C0.70451 -1.84959 2.9569 6.97897 7.60245 1.95132C9.15096 1.348 7.28068 3.01718 8.20577 3.64061C9.89506 5.12879 9.49285 5.04835 10.1967 6.91864C14.983 10.8402 21.4989 12.3485 25.0182 6.67731C25.8025 5.97344 26.8081 6.63709 27.5522 6.21477C28.0549 5.93322 28.6985 5.95333 29.1409 6.31532C29.3219 6.45609 29.523 6.59687 29.7845 6.67731C31.5542 7.44151 33.0625 6.93875 34.3093 8.52749C36.9237 9.83468 38.5929 10.4782 37.7684 13.8166C35.4758 16.8734 37.5673 20.0911 37.8287 23.6909C37.3259 25.1791 40.242 24.0127 40.3425 24.9176C37.527 29.6034 37.4667 27.1097 40.4833 31.5944C41.4687 33.1228 43.1379 32.3988 43.3993 33.8266C43.7814 34.6713 43.0172 35.5561 44.1434 36.1192C45.0886 36.3807 41.6296 36.6019 41.0464 39.4174C40.8654 40.2017 40.1414 40.6843 39.3571 40.5436Z" fill="#FADAD9"/>
<mask id="path-2-outside-1_691:6167" maskUnits="userSpaceOnUse" x="-0.396973" y="0" width="46" height="42" fill="black">
<rect fill="white" x="-0.396973" width="46" height="42"/>
<path d="M39.5985 41.0065C39.4979 41.0065 39.3773 41.0065 39.2566 40.9864C38.0902 40.7853 36.8835 40.7049 35.7171 40.6244C34.3496 40.5239 32.9218 40.4233 31.6146 40.1619C31.0314 40.0412 30.5688 39.5787 30.4079 39.0156C30.3677 38.8547 30.3275 38.6737 30.2873 38.5128C29.9856 37.2257 29.7443 36.3811 28.8594 36.2001C27.7332 35.999 26.7478 36.4615 25.7222 36.9643C24.1736 37.7084 22.424 38.553 20.3526 36.5822C20.1515 36.3811 20.1515 36.0794 20.3325 35.8783C20.5336 35.6772 20.8353 35.6772 21.0364 35.8582C22.5849 37.3464 23.7714 36.7833 25.2596 36.0593C26.3456 35.5364 27.5723 34.9331 29.0203 35.2147C30.609 35.5364 30.971 37.0648 31.2526 38.2916C31.2928 38.4525 31.333 38.6134 31.3732 38.7743C31.4336 38.9754 31.5945 39.1563 31.7956 39.1966C33.0424 39.458 34.3697 39.5385 35.7574 39.639C36.964 39.7194 38.1907 39.7999 39.3974 40.001C39.9202 40.0814 40.4029 39.7597 40.5035 39.277C40.9057 37.4067 42.414 36.542 43.2988 36.1196C42.8966 35.6571 42.9167 35.1141 42.957 34.7119C42.9771 34.4304 42.9972 34.189 42.8966 33.9879L42.8765 33.9276L42.8564 33.8673C42.776 33.4449 42.5749 33.3645 41.9514 33.1634C41.3682 32.9824 40.5839 32.721 40.0007 31.816C39.337 30.8306 38.8142 30.187 38.4522 29.7245C37.4265 28.4374 37.4265 28.1961 38.3918 26.8487C38.6935 26.4062 39.1158 25.8431 39.6387 24.9985C39.4577 24.9784 39.2164 24.9784 39.0555 24.9784C38.412 24.9784 37.7282 24.9784 37.3863 24.4957C37.2053 24.2544 37.1651 23.9527 37.2656 23.5907C37.1852 22.5651 36.9439 21.5395 36.7026 20.554C36.1596 18.2413 35.5965 15.8482 37.2455 13.5556C37.8891 10.8406 36.783 10.2775 34.3697 9.091L34.0278 8.93011C33.7865 8.80945 33.686 8.50779 33.8066 8.24635C33.9273 8.00503 34.2289 7.90447 34.4904 8.02514L34.8323 8.18602C37.2053 9.37255 39.0957 10.2976 38.2108 13.8773L38.1907 13.9779L38.1304 14.0583C36.6824 15.9889 37.145 18 37.688 20.3127C37.9293 21.3585 38.1907 22.4646 38.2712 23.5907V23.6913L38.231 23.7918C38.2108 23.8321 38.2108 23.8723 38.2108 23.8924C38.3717 23.9527 38.7941 23.9527 39.0354 23.9527C39.7191 23.9527 40.6643 23.9527 40.785 24.7974L40.8051 24.9784L40.7247 25.1191C40.061 26.2051 39.5784 26.909 39.1963 27.4118C38.9147 27.814 38.6734 28.1357 38.6734 28.2564C38.6734 28.3771 38.9348 28.6988 39.2365 29.0608C39.6186 29.5435 40.1415 30.2071 40.8453 31.2328C41.2274 31.8361 41.7302 31.997 42.2732 32.178C42.8765 32.3791 43.6206 32.6204 43.8418 33.6058C44.0228 34.0281 43.9826 34.4304 43.9625 34.7521C43.9223 35.2147 43.9223 35.3957 44.2843 35.5968C44.6462 35.7174 44.7468 35.9387 44.7468 36.1196C44.7669 36.542 44.425 36.7029 44.0027 36.8839C43.2385 37.2257 41.8106 37.8492 41.4688 39.458C41.328 40.3831 40.5236 41.0065 39.5985 41.0065ZM17.5975 34.4907C17.5774 34.4907 17.5371 34.4907 17.517 34.4907C15.5663 34.189 14.6211 32.4997 13.7161 30.8507C12.9519 29.463 12.2279 28.1558 10.9811 27.7335C9.77444 27.3313 9.875 26.3258 9.91522 25.642C9.95544 25.1795 9.99566 24.7572 9.75433 24.4153C9.05046 23.4299 8.06504 22.4645 7.11984 21.5395C4.60602 19.1061 1.99164 16.552 4.14347 13.1936C4.90768 12.007 4.82723 11.5244 4.74679 11.3635C4.66635 11.2026 4.46524 11.0819 4.12336 11.0417C1.85086 10.5993 1.3481 7.34138 1.00622 4.98844C0.905665 4.32479 0.805112 3.70136 0.704559 3.25892L0.684448 3.17848C0.543674 1.91151 0.543674 1.3082 1.02633 1.06687C1.46876 0.845651 1.83075 1.20764 2.27319 1.65008C2.83628 2.19306 3.68093 3.0176 4.72668 2.99749C5.51099 2.97738 6.35564 2.49472 7.2204 1.54952L7.30084 1.46908L7.4215 1.40875C7.70305 1.3082 8.22593 1.10709 8.56781 1.42886C8.88958 1.73052 8.72869 2.15284 8.58792 2.49472C8.46725 2.79638 8.3667 3.07793 8.46725 3.13826L8.52759 3.17848C9.875 4.36501 9.99566 4.66667 10.3174 5.65209C10.3979 5.89341 10.4783 6.17496 10.6191 6.55706C13.6759 9.05078 17.0143 10.1971 19.7895 9.75465C21.7805 9.43288 23.3893 8.28657 24.5759 6.35596L24.6161 6.29562L24.6764 6.2554C25.2797 5.71242 25.9434 5.77275 26.4864 5.79286C26.8081 5.81297 27.1098 5.83308 27.3109 5.73253C27.9745 5.37054 28.8192 5.39065 29.503 5.79286C29.6638 5.89341 29.8247 5.99397 29.9856 6.09452C30.2873 6.29562 30.609 6.49673 30.8303 6.53695C31.0917 6.59728 31.2727 6.85872 31.2124 7.14027C31.152 7.40171 30.8906 7.5827 30.609 7.52237C30.2269 7.44193 29.8448 7.2006 29.4627 6.93916C29.322 6.83861 29.1611 6.75817 29.0203 6.65762C28.6382 6.4364 28.1757 6.41629 27.8137 6.61739C27.3511 6.85872 26.8685 6.83861 26.4461 6.8185C25.9836 6.79839 25.6819 6.77828 25.4205 6.97939C24.0731 9.13122 22.243 10.3982 19.9906 10.7803C16.8735 11.2428 13.1932 9.97587 9.85489 7.24082L9.75433 7.16038L9.71411 7.03972C9.55323 6.57717 9.43256 6.23529 9.35212 5.97386C9.09068 5.16943 9.05046 5.00855 7.88405 3.98291C7.4215 3.64103 7.38128 3.15837 7.46172 2.73605C6.55675 3.56058 5.65177 3.98291 4.74679 4.00302C3.31894 4.04324 2.27319 3.03771 1.62965 2.41428C1.62965 2.57516 1.64976 2.77627 1.66987 3.03771C1.79053 3.52036 1.89108 4.12368 1.99164 4.82755C2.31341 6.89894 2.73573 9.75465 4.30436 10.0563C4.98812 10.1569 5.45066 10.4786 5.67188 10.9613C5.97354 11.6249 5.75232 12.55 4.98812 13.7365C3.27872 16.4113 5.39033 18.4625 7.8036 20.8356C8.76891 21.7808 9.77444 22.7662 10.5386 23.8321C10.9811 24.4555 10.9409 25.1594 10.8805 25.7225C10.8202 26.4666 10.8403 26.6274 11.2626 26.7682C12.8715 27.3112 13.7362 28.8597 14.5608 30.3479C15.3853 31.8361 16.1897 33.2639 17.6377 33.4852C17.9192 33.5254 18.1002 33.7868 18.06 34.0483C18.06 34.3097 17.8388 34.4907 17.5975 34.4907Z"/>
</mask>
<path d="M39.5985 41.0065C39.4979 41.0065 39.3773 41.0065 39.2566 40.9864C38.0902 40.7853 36.8835 40.7049 35.7171 40.6244C34.3496 40.5239 32.9218 40.4233 31.6146 40.1619C31.0314 40.0412 30.5688 39.5787 30.4079 39.0156C30.3677 38.8547 30.3275 38.6737 30.2873 38.5128C29.9856 37.2257 29.7443 36.3811 28.8594 36.2001C27.7332 35.999 26.7478 36.4615 25.7222 36.9643C24.1736 37.7084 22.424 38.553 20.3526 36.5822C20.1515 36.3811 20.1515 36.0794 20.3325 35.8783C20.5336 35.6772 20.8353 35.6772 21.0364 35.8582C22.5849 37.3464 23.7714 36.7833 25.2596 36.0593C26.3456 35.5364 27.5723 34.9331 29.0203 35.2147C30.609 35.5364 30.971 37.0648 31.2526 38.2916C31.2928 38.4525 31.333 38.6134 31.3732 38.7743C31.4336 38.9754 31.5945 39.1563 31.7956 39.1966C33.0424 39.458 34.3697 39.5385 35.7574 39.639C36.964 39.7194 38.1907 39.7999 39.3974 40.001C39.9202 40.0814 40.4029 39.7597 40.5035 39.277C40.9057 37.4067 42.414 36.542 43.2988 36.1196C42.8966 35.6571 42.9167 35.1141 42.957 34.7119C42.9771 34.4304 42.9972 34.189 42.8966 33.9879L42.8765 33.9276L42.8564 33.8673C42.776 33.4449 42.5749 33.3645 41.9514 33.1634C41.3682 32.9824 40.5839 32.721 40.0007 31.816C39.337 30.8306 38.8142 30.187 38.4522 29.7245C37.4265 28.4374 37.4265 28.1961 38.3918 26.8487C38.6935 26.4062 39.1158 25.8431 39.6387 24.9985C39.4577 24.9784 39.2164 24.9784 39.0555 24.9784C38.412 24.9784 37.7282 24.9784 37.3863 24.4957C37.2053 24.2544 37.1651 23.9527 37.2656 23.5907C37.1852 22.5651 36.9439 21.5395 36.7026 20.554C36.1596 18.2413 35.5965 15.8482 37.2455 13.5556C37.8891 10.8406 36.783 10.2775 34.3697 9.091L34.0278 8.93011C33.7865 8.80945 33.686 8.50779 33.8066 8.24635C33.9273 8.00503 34.2289 7.90447 34.4904 8.02514L34.8323 8.18602C37.2053 9.37255 39.0957 10.2976 38.2108 13.8773L38.1907 13.9779L38.1304 14.0583C36.6824 15.9889 37.145 18 37.688 20.3127C37.9293 21.3585 38.1907 22.4646 38.2712 23.5907V23.6913L38.231 23.7918C38.2108 23.8321 38.2108 23.8723 38.2108 23.8924C38.3717 23.9527 38.7941 23.9527 39.0354 23.9527C39.7191 23.9527 40.6643 23.9527 40.785 24.7974L40.8051 24.9784L40.7247 25.1191C40.061 26.2051 39.5784 26.909 39.1963 27.4118C38.9147 27.814 38.6734 28.1357 38.6734 28.2564C38.6734 28.3771 38.9348 28.6988 39.2365 29.0608C39.6186 29.5435 40.1415 30.2071 40.8453 31.2328C41.2274 31.8361 41.7302 31.997 42.2732 32.178C42.8765 32.3791 43.6206 32.6204 43.8418 33.6058C44.0228 34.0281 43.9826 34.4304 43.9625 34.7521C43.9223 35.2147 43.9223 35.3957 44.2843 35.5968C44.6462 35.7174 44.7468 35.9387 44.7468 36.1196C44.7669 36.542 44.425 36.7029 44.0027 36.8839C43.2385 37.2257 41.8106 37.8492 41.4688 39.458C41.328 40.3831 40.5236 41.0065 39.5985 41.0065ZM17.5975 34.4907C17.5774 34.4907 17.5371 34.4907 17.517 34.4907C15.5663 34.189 14.6211 32.4997 13.7161 30.8507C12.9519 29.463 12.2279 28.1558 10.9811 27.7335C9.77444 27.3313 9.875 26.3258 9.91522 25.642C9.95544 25.1795 9.99566 24.7572 9.75433 24.4153C9.05046 23.4299 8.06504 22.4645 7.11984 21.5395C4.60602 19.1061 1.99164 16.552 4.14347 13.1936C4.90768 12.007 4.82723 11.5244 4.74679 11.3635C4.66635 11.2026 4.46524 11.0819 4.12336 11.0417C1.85086 10.5993 1.3481 7.34138 1.00622 4.98844C0.905665 4.32479 0.805112 3.70136 0.704559 3.25892L0.684448 3.17848C0.543674 1.91151 0.543674 1.3082 1.02633 1.06687C1.46876 0.845651 1.83075 1.20764 2.27319 1.65008C2.83628 2.19306 3.68093 3.0176 4.72668 2.99749C5.51099 2.97738 6.35564 2.49472 7.2204 1.54952L7.30084 1.46908L7.4215 1.40875C7.70305 1.3082 8.22593 1.10709 8.56781 1.42886C8.88958 1.73052 8.72869 2.15284 8.58792 2.49472C8.46725 2.79638 8.3667 3.07793 8.46725 3.13826L8.52759 3.17848C9.875 4.36501 9.99566 4.66667 10.3174 5.65209C10.3979 5.89341 10.4783 6.17496 10.6191 6.55706C13.6759 9.05078 17.0143 10.1971 19.7895 9.75465C21.7805 9.43288 23.3893 8.28657 24.5759 6.35596L24.6161 6.29562L24.6764 6.2554C25.2797 5.71242 25.9434 5.77275 26.4864 5.79286C26.8081 5.81297 27.1098 5.83308 27.3109 5.73253C27.9745 5.37054 28.8192 5.39065 29.503 5.79286C29.6638 5.89341 29.8247 5.99397 29.9856 6.09452C30.2873 6.29562 30.609 6.49673 30.8303 6.53695C31.0917 6.59728 31.2727 6.85872 31.2124 7.14027C31.152 7.40171 30.8906 7.5827 30.609 7.52237C30.2269 7.44193 29.8448 7.2006 29.4627 6.93916C29.322 6.83861 29.1611 6.75817 29.0203 6.65762C28.6382 6.4364 28.1757 6.41629 27.8137 6.61739C27.3511 6.85872 26.8685 6.83861 26.4461 6.8185C25.9836 6.79839 25.6819 6.77828 25.4205 6.97939C24.0731 9.13122 22.243 10.3982 19.9906 10.7803C16.8735 11.2428 13.1932 9.97587 9.85489 7.24082L9.75433 7.16038L9.71411 7.03972C9.55323 6.57717 9.43256 6.23529 9.35212 5.97386C9.09068 5.16943 9.05046 5.00855 7.88405 3.98291C7.4215 3.64103 7.38128 3.15837 7.46172 2.73605C6.55675 3.56058 5.65177 3.98291 4.74679 4.00302C3.31894 4.04324 2.27319 3.03771 1.62965 2.41428C1.62965 2.57516 1.64976 2.77627 1.66987 3.03771C1.79053 3.52036 1.89108 4.12368 1.99164 4.82755C2.31341 6.89894 2.73573 9.75465 4.30436 10.0563C4.98812 10.1569 5.45066 10.4786 5.67188 10.9613C5.97354 11.6249 5.75232 12.55 4.98812 13.7365C3.27872 16.4113 5.39033 18.4625 7.8036 20.8356C8.76891 21.7808 9.77444 22.7662 10.5386 23.8321C10.9811 24.4555 10.9409 25.1594 10.8805 25.7225C10.8202 26.4666 10.8403 26.6274 11.2626 26.7682C12.8715 27.3112 13.7362 28.8597 14.5608 30.3479C15.3853 31.8361 16.1897 33.2639 17.6377 33.4852C17.9192 33.5254 18.1002 33.7868 18.06 34.0483C18.06 34.3097 17.8388 34.4907 17.5975 34.4907Z" fill="#002C31"/>
<path d="M39.5985 41.0065C39.4979 41.0065 39.3773 41.0065 39.2566 40.9864C38.0902 40.7853 36.8835 40.7049 35.7171 40.6244C34.3496 40.5239 32.9218 40.4233 31.6146 40.1619C31.0314 40.0412 30.5688 39.5787 30.4079 39.0156C30.3677 38.8547 30.3275 38.6737 30.2873 38.5128C29.9856 37.2257 29.7443 36.3811 28.8594 36.2001C27.7332 35.999 26.7478 36.4615 25.7222 36.9643C24.1736 37.7084 22.424 38.553 20.3526 36.5822C20.1515 36.3811 20.1515 36.0794 20.3325 35.8783C20.5336 35.6772 20.8353 35.6772 21.0364 35.8582C22.5849 37.3464 23.7714 36.7833 25.2596 36.0593C26.3456 35.5364 27.5723 34.9331 29.0203 35.2147C30.609 35.5364 30.971 37.0648 31.2526 38.2916C31.2928 38.4525 31.333 38.6134 31.3732 38.7743C31.4336 38.9754 31.5945 39.1563 31.7956 39.1966C33.0424 39.458 34.3697 39.5385 35.7574 39.639C36.964 39.7194 38.1907 39.7999 39.3974 40.001C39.9202 40.0814 40.4029 39.7597 40.5035 39.277C40.9057 37.4067 42.414 36.542 43.2988 36.1196C42.8966 35.6571 42.9167 35.1141 42.957 34.7119C42.9771 34.4304 42.9972 34.189 42.8966 33.9879L42.8765 33.9276L42.8564 33.8673C42.776 33.4449 42.5749 33.3645 41.9514 33.1634C41.3682 32.9824 40.5839 32.721 40.0007 31.816C39.337 30.8306 38.8142 30.187 38.4522 29.7245C37.4265 28.4374 37.4265 28.1961 38.3918 26.8487C38.6935 26.4062 39.1158 25.8431 39.6387 24.9985C39.4577 24.9784 39.2164 24.9784 39.0555 24.9784C38.412 24.9784 37.7282 24.9784 37.3863 24.4957C37.2053 24.2544 37.1651 23.9527 37.2656 23.5907C37.1852 22.5651 36.9439 21.5395 36.7026 20.554C36.1596 18.2413 35.5965 15.8482 37.2455 13.5556C37.8891 10.8406 36.783 10.2775 34.3697 9.091L34.0278 8.93011C33.7865 8.80945 33.686 8.50779 33.8066 8.24635C33.9273 8.00503 34.2289 7.90447 34.4904 8.02514L34.8323 8.18602C37.2053 9.37255 39.0957 10.2976 38.2108 13.8773L38.1907 13.9779L38.1304 14.0583C36.6824 15.9889 37.145 18 37.688 20.3127C37.9293 21.3585 38.1907 22.4646 38.2712 23.5907V23.6913L38.231 23.7918C38.2108 23.8321 38.2108 23.8723 38.2108 23.8924C38.3717 23.9527 38.7941 23.9527 39.0354 23.9527C39.7191 23.9527 40.6643 23.9527 40.785 24.7974L40.8051 24.9784L40.7247 25.1191C40.061 26.2051 39.5784 26.909 39.1963 27.4118C38.9147 27.814 38.6734 28.1357 38.6734 28.2564C38.6734 28.3771 38.9348 28.6988 39.2365 29.0608C39.6186 29.5435 40.1415 30.2071 40.8453 31.2328C41.2274 31.8361 41.7302 31.997 42.2732 32.178C42.8765 32.3791 43.6206 32.6204 43.8418 33.6058C44.0228 34.0281 43.9826 34.4304 43.9625 34.7521C43.9223 35.2147 43.9223 35.3957 44.2843 35.5968C44.6462 35.7174 44.7468 35.9387 44.7468 36.1196C44.7669 36.542 44.425 36.7029 44.0027 36.8839C43.2385 37.2257 41.8106 37.8492 41.4688 39.458C41.328 40.3831 40.5236 41.0065 39.5985 41.0065ZM17.5975 34.4907C17.5774 34.4907 17.5371 34.4907 17.517 34.4907C15.5663 34.189 14.6211 32.4997 13.7161 30.8507C12.9519 29.463 12.2279 28.1558 10.9811 27.7335C9.77444 27.3313 9.875 26.3258 9.91522 25.642C9.95544 25.1795 9.99566 24.7572 9.75433 24.4153C9.05046 23.4299 8.06504 22.4645 7.11984 21.5395C4.60602 19.1061 1.99164 16.552 4.14347 13.1936C4.90768 12.007 4.82723 11.5244 4.74679 11.3635C4.66635 11.2026 4.46524 11.0819 4.12336 11.0417C1.85086 10.5993 1.3481 7.34138 1.00622 4.98844C0.905665 4.32479 0.805112 3.70136 0.704559 3.25892L0.684448 3.17848C0.543674 1.91151 0.543674 1.3082 1.02633 1.06687C1.46876 0.845651 1.83075 1.20764 2.27319 1.65008C2.83628 2.19306 3.68093 3.0176 4.72668 2.99749C5.51099 2.97738 6.35564 2.49472 7.2204 1.54952L7.30084 1.46908L7.4215 1.40875C7.70305 1.3082 8.22593 1.10709 8.56781 1.42886C8.88958 1.73052 8.72869 2.15284 8.58792 2.49472C8.46725 2.79638 8.3667 3.07793 8.46725 3.13826L8.52759 3.17848C9.875 4.36501 9.99566 4.66667 10.3174 5.65209C10.3979 5.89341 10.4783 6.17496 10.6191 6.55706C13.6759 9.05078 17.0143 10.1971 19.7895 9.75465C21.7805 9.43288 23.3893 8.28657 24.5759 6.35596L24.6161 6.29562L24.6764 6.2554C25.2797 5.71242 25.9434 5.77275 26.4864 5.79286C26.8081 5.81297 27.1098 5.83308 27.3109 5.73253C27.9745 5.37054 28.8192 5.39065 29.503 5.79286C29.6638 5.89341 29.8247 5.99397 29.9856 6.09452C30.2873 6.29562 30.609 6.49673 30.8303 6.53695C31.0917 6.59728 31.2727 6.85872 31.2124 7.14027C31.152 7.40171 30.8906 7.5827 30.609 7.52237C30.2269 7.44193 29.8448 7.2006 29.4627 6.93916C29.322 6.83861 29.1611 6.75817 29.0203 6.65762C28.6382 6.4364 28.1757 6.41629 27.8137 6.61739C27.3511 6.85872 26.8685 6.83861 26.4461 6.8185C25.9836 6.79839 25.6819 6.77828 25.4205 6.97939C24.0731 9.13122 22.243 10.3982 19.9906 10.7803C16.8735 11.2428 13.1932 9.97587 9.85489 7.24082L9.75433 7.16038L9.71411 7.03972C9.55323 6.57717 9.43256 6.23529 9.35212 5.97386C9.09068 5.16943 9.05046 5.00855 7.88405 3.98291C7.4215 3.64103 7.38128 3.15837 7.46172 2.73605C6.55675 3.56058 5.65177 3.98291 4.74679 4.00302C3.31894 4.04324 2.27319 3.03771 1.62965 2.41428C1.62965 2.57516 1.64976 2.77627 1.66987 3.03771C1.79053 3.52036 1.89108 4.12368 1.99164 4.82755C2.31341 6.89894 2.73573 9.75465 4.30436 10.0563C4.98812 10.1569 5.45066 10.4786 5.67188 10.9613C5.97354 11.6249 5.75232 12.55 4.98812 13.7365C3.27872 16.4113 5.39033 18.4625 7.8036 20.8356C8.76891 21.7808 9.77444 22.7662 10.5386 23.8321C10.9811 24.4555 10.9409 25.1594 10.8805 25.7225C10.8202 26.4666 10.8403 26.6274 11.2626 26.7682C12.8715 27.3112 13.7362 28.8597 14.5608 30.3479C15.3853 31.8361 16.1897 33.2639 17.6377 33.4852C17.9192 33.5254 18.1002 33.7868 18.06 34.0483C18.06 34.3097 17.8388 34.4907 17.5975 34.4907Z" stroke="#002C31" mask="url(#path-2-outside-1_691:6167)"/>
<path d="M13.0981 7.92521C13.0981 10.5396 16.336 17.88 17.8241 17.88C19.3928 17.88 22.5501 10.5396 22.5501 7.92521C22.5501 5.31083 20.4385 3.19922 17.8241 3.19922C15.2098 3.21933 13.0981 5.33094 13.0981 7.92521Z" fill="#839B9A"/>
<path d="M16.0342 7.84395C16.0342 8.82937 16.8185 9.61369 17.8039 9.61369C18.7893 9.61369 19.5736 8.82937 19.5736 7.84395C19.5736 6.85853 18.7893 6.07422 17.8039 6.07422C16.8386 6.07422 16.0342 6.87864 16.0342 7.84395Z" fill="white"/>
<path d="M32.4189 22.4994C32.4189 25.1138 35.6568 32.4542 37.1449 32.4542C38.7136 32.4542 41.8709 25.1138 41.8709 22.4994C41.8709 19.8851 39.7593 17.7734 37.1449 17.7734C34.5507 17.7734 32.4189 19.8851 32.4189 22.4994Z" fill="#839B9A"/>
<path d="M35.3752 22.258C35.3752 23.2434 36.1596 24.0277 37.145 24.0277C38.1304 24.0277 38.9147 23.2434 38.9147 22.258C38.9147 21.2726 38.1304 20.4883 37.145 20.4883C36.1797 20.4883 35.3752 21.2726 35.3752 22.258Z" fill="white"/>
</svg>
