<svg width="41" height="42" viewBox="0 0 41 42" fill="none" xmlns="http://www.w3.org/2000/svg">
<path d="M27.3438 12.2584L27.3435 12.2585L27.3468 12.2705C27.4331 12.587 27.7221 12.8269 28.0581 12.8269C28.0592 12.8269 28.0603 12.8269 28.0616 12.8269C28.0784 12.8269 28.1143 12.827 28.1498 12.8219C28.1714 12.8188 28.2107 12.8117 28.2534 12.7907C28.6343 12.6854 28.8586 12.3122 28.7722 11.9344C28.7721 11.9339 28.772 11.9335 28.7719 11.933L27.3427 5.43342C27.3427 5.43319 27.3426 5.43297 27.3426 5.43274C26.7884 2.84846 24.1785 0.75 21.5155 0.75H20.066C18.7265 0.75 17.554 1.26701 16.7762 2.2341L16.7761 2.23409L16.7741 2.23672C16.0193 3.20119 15.7522 4.45411 16.0412 5.7552C16.0413 5.7553 16.0413 5.7554 16.0413 5.75551L17.4709 12.2571C17.4709 12.2573 17.471 12.2576 17.471 12.2578C17.5587 12.6652 17.9457 12.9103 18.3377 12.8209C18.7446 12.7327 18.9891 12.3458 18.8995 11.954C18.8994 11.9535 18.8993 11.9531 18.8992 11.9526L17.4702 5.45357C17.287 4.55366 17.4558 3.75149 17.9307 3.15351C18.4056 2.55545 19.1516 2.20984 20.066 2.20984H21.5155C22.4865 2.20984 23.4855 2.6143 24.2969 3.26856C25.1083 3.92287 25.7122 4.81102 25.9135 5.75349L25.9139 5.75496L27.3438 12.2584Z" fill="#002C31" stroke="#002C31" stroke-width="0.5"/>
<path d="M32.779 8.09099C32.5831 7.17032 32.3088 6.7002 32.0346 6.7002C31.7604 6.7002 31.5057 7.17032 31.2902 8.09099L24.728 37.9832C24.4146 39.374 25.0023 40.3339 26.0601 40.4906C26.4127 40.5494 26.824 40.5102 27.2942 40.3731L28.7241 39.9421C30.5459 39.4132 33.5233 39.4132 35.3451 39.9421L36.7751 40.3731C38.5968 40.9019 39.7525 39.8246 39.3412 37.9832L32.779 8.09099Z" fill="#FADAD9"/>
<path d="M23.3677 5.42995L23.3672 5.43211L21.9378 11.933C21.9377 11.9335 21.9376 11.9339 21.9375 11.9344C21.8492 12.3204 22.101 12.6843 22.4533 12.7892C22.4972 12.8114 22.5378 12.8188 22.5599 12.8219C22.5954 12.827 22.6313 12.8269 22.6481 12.8269C22.6494 12.8269 22.6505 12.8269 22.6516 12.8269C22.9761 12.8269 23.2931 12.5982 23.3825 12.2705L23.3828 12.2706L23.3855 12.2584L24.8153 5.75551C24.8153 5.75546 24.8153 5.75541 24.8153 5.75537C25.1038 4.45719 24.8589 3.20187 24.0805 2.2341C23.3026 1.26701 22.1301 0.75 20.7907 0.75H19.3215C16.6574 0.75 14.0487 2.84943 13.475 5.45156L13.475 5.4517L12.0456 11.9526C12.0455 11.9531 12.0454 11.9535 12.0453 11.954C11.9533 12.356 12.2301 12.7339 12.6051 12.8205C13.0076 12.9134 13.3864 12.6364 13.473 12.2609L13.473 12.2609L13.4736 12.2584L14.9034 5.75576C14.9034 5.75562 14.9035 5.75548 14.9035 5.75534C15.1143 4.81191 15.7235 3.92311 16.5377 3.26606C17.3518 2.60921 18.3512 2.19974 19.3227 2.19025H20.7711C21.6667 2.19025 22.4319 2.53649 22.9063 3.13392L22.9063 3.13395L22.9091 3.13738C23.4007 3.73431 23.5687 4.55281 23.3677 5.42995Z" fill="#002C31" stroke="#002C31" stroke-width="0.5"/>
<path d="M32.8262 6.31625L32.8263 6.31609L32.8187 6.3084C32.579 6.06879 32.3012 5.96094 32.0346 5.96094H26.7653C26.353 5.96094 26.0256 6.28834 26.0256 6.70065C26.0256 7.11297 26.353 7.44037 26.7653 7.44037H31.7986C31.8142 7.46385 31.8329 7.49018 31.8551 7.51686C31.9244 7.71277 31.9945 7.94501 32.0651 8.24479L34.2194 18.0764L34.2194 18.0764L34.22 18.0791C34.3084 18.4619 34.691 18.7279 35.1037 18.6395L35.1037 18.6396L35.1075 18.6387C35.4903 18.5503 35.7563 18.1677 35.6679 17.755L35.6677 17.7539L33.5129 7.9204L33.5129 7.9204L33.5123 7.9177C33.3328 7.1398 33.0855 6.59919 32.8262 6.31625Z" fill="#002C31" stroke="#002C31" stroke-width="0.5"/>
<path d="M2.57211 41.2302L2.5517 41.2268C1.77675 41.0977 1.18104 40.6835 0.828235 40.0661L0.826741 40.0635L0.826757 40.0635C0.497593 39.471 0.398835 38.7204 0.605556 37.8301C0.605673 37.8296 0.60579 37.8291 0.605907 37.8286L5.42377 15.8936C5.42381 15.8934 5.42386 15.8932 5.42391 15.8929C5.51366 15.4759 5.92773 15.2426 6.31018 15.3298C6.72662 15.4201 6.95939 15.8341 6.87198 16.2163C6.87187 16.2168 6.87177 16.2172 6.87166 16.2177L2.05384 38.1525C2.05378 38.1528 2.05371 38.1531 2.05365 38.1534C1.95321 38.6289 1.9877 39.0099 2.11171 39.2756C2.22828 39.5254 2.43167 39.6924 2.73312 39.7508H26.0796H26.0797H26.0798H26.0799H26.0801H26.0802H26.0803H26.0804H26.0805H26.0806H26.0808H26.0809H26.081H26.0811H26.0812H26.0814H26.0815H26.0816H26.0817H26.0819H26.082H26.0821H26.0822H26.0824H26.0825H26.0826H26.0827H26.0829H26.083H26.0831H26.0832H26.0834H26.0835H26.0836H26.0837H26.0839H26.084H26.0841H26.0843H26.0844H26.0845H26.0847H26.0848H26.0849H26.0851H26.0852H26.0853H26.0855H26.0856H26.0857H26.0859H26.086H26.0861H26.0863H26.0864H26.0865H26.0867H26.0868H26.087H26.0871H26.0872H26.0874H26.0875H26.0876H26.0878H26.0879H26.0881H26.0882H26.0883H26.0885H26.0886H26.0888H26.0889H26.0891H26.0892H26.0893H26.0895H26.0896H26.0898H26.0899H26.0901H26.0902H26.0904H26.0905H26.0906H26.0908H26.0909H26.0911H26.0912H26.0914H26.0915H26.0917H26.0918H26.092H26.0921H26.0923H26.0924H26.0926H26.0927H26.0929H26.093H26.0932H26.0933H26.0935H26.0936H26.0938H26.0939H26.0941H26.0942H26.0944H26.0945H26.0947H26.0949H26.095H26.0952H26.0953H26.0955H26.0956H26.0958H26.0959H26.0961H26.0963H26.0964H26.0966H26.0967H26.0969H26.097H26.0972H26.0973H26.0975H26.0977H26.0978H26.098H26.0981H26.0983H26.0985H26.0986H26.0988H26.0989H26.0991H26.0993H26.0994H26.0996H26.0997H26.0999H26.1001H26.1002H26.1004H26.1005H26.1007H26.1009H26.101H26.1012H26.1014H26.1015H26.1017H26.1018H26.102H26.1022H26.1023H26.1025H26.1027H26.1028H26.103H26.1032H26.1033H26.1035H26.1037H26.1038H26.104H26.1042H26.1043H26.1045H26.1047H26.1048H26.105H26.1052H26.1053H26.1055H26.1056H26.1058H26.106H26.1062H26.1063H26.1065H26.1067H26.1068H26.107H26.1072H26.1073H26.1075H26.1077H26.1078H26.108H26.1082H26.1083H26.1085H26.1087H26.1088H26.109H26.1092H26.1094H26.1095H26.1097H26.1099H26.11H26.1102H26.1104H26.1105H26.1107H26.1109H26.1111H26.1112H26.1114H26.1116H26.1117H26.1119H26.1121H26.1122H26.1124H26.1126H26.1128H26.1129H26.1131H26.1133H26.1134H26.1136H26.1138H26.114H26.1141H26.1143H26.1145H26.1146H26.1148H26.115H26.1152H26.1153H26.1155H26.1157H26.1158H26.116H26.1162H26.1164H26.1165H26.1167H26.1169H26.1171H26.1172H26.1174H26.1176H26.1177H26.1179H26.1181H26.1183H26.1184H26.1186H26.1188H26.1189H26.1191H26.1193H26.1195H26.1196H26.1198H26.12H26.1202H26.1203H26.1205H26.1207H26.1208H26.121H26.1212H26.1214H26.1215H26.1217H26.1219H26.122H26.1222H26.1224H26.1226H26.1227H26.1229H26.1231H26.1232H26.1234H26.1236H26.1238H26.1239H26.1241H26.1243H26.1244H26.1246H26.1248H26.125H26.1251H26.1253H26.1255H26.1256H26.1258H26.126H26.1262H26.1263H26.1265H26.1267H26.1268H26.127H26.1272H26.1273H26.1275H26.1277H26.1279H26.128H26.1282H26.1284H26.1285H26.1287H26.1289H26.129H26.1292H26.1294H26.1295H26.1297H26.1299H26.1301H26.1302H26.1304H26.1306H26.1307H26.1309H26.1311H26.1312H26.1314H26.1316H26.1317H26.1319H26.1321H26.1322H26.1324H26.1326H26.1327H26.1329H26.1331H26.1332H26.1334H26.1336H26.1337H26.1339H26.1341H26.1342H26.1344H26.1346H26.1347H26.1349H26.135H26.1352H26.1354H26.1355H26.1357H26.1359H26.136H26.1362H26.1363H26.1365H26.1367H26.1368H26.137H26.1372H26.1373H26.1375H26.1376H26.1378H26.138H26.1381H26.1383H26.1384H26.1386H26.1388H26.1389H26.1391H26.1392H26.1394H26.1396H26.1397H26.1399H26.14H26.1402H26.1404H26.1405H26.1407H26.1408H26.141H26.1411H26.1413H26.1415H26.1416H26.1418H26.1419H26.1421H26.1422H26.1424H26.1425H26.1427H26.1428H26.143H26.1432H26.1433H26.1435H26.1436H26.1438H26.1439H26.1441H26.1442H26.1444H26.1445H26.1447H26.1448H26.145H26.1451H26.1453H26.1454H26.1456H26.1457H26.1459H26.146H26.1462H26.1463H26.1465H26.1466H26.1468H26.1469H26.147H26.1472H26.1473H26.1475H26.1476H26.1478H26.1479H26.1481H26.1482H26.1483H26.1485H26.1486H26.1488H26.1489H26.1491H26.1492H26.1493H26.1495H26.1496H26.1498H26.1499H26.15H26.1502H26.1503H26.1505H26.1506H26.1507H26.1509H26.151H26.1511H26.1513H26.1514H26.1516H26.1517H26.1518H26.152H26.1521H26.1522H26.1524H26.1525H26.1526H26.1528H26.1529H26.153H26.1531H26.1533H26.1534H26.1535H26.1537H26.1538H26.1539H26.1541H26.1542H26.1543H26.1544H26.1546H26.1547H26.1548H26.1549H26.1551H26.1552H26.1553H26.1554H26.1556H26.1557H26.1558H26.1559H26.1561H26.1562H26.1563H26.1564H26.1565H26.1567H26.1568H26.1569H26.157H26.1571H26.1573H26.1574H26.1575H26.1576H26.1577H26.1578H26.1579H26.1745L26.191 39.753C26.4472 39.7872 26.7443 39.7715 27.1044 39.6635L2.57211 41.2302ZM2.57211 41.2302H2.5928H2.59291H2.59303H2.59315H2.59326H2.59338H2.5935H2.59361H2.59373H2.59385H2.59397H2.59409H2.59421H2.59433H2.59445H2.59457H2.59469H2.59481H2.59494H2.59506H2.59518H2.59531H2.59543H2.59555H2.59568H2.5958H2.59593H2.59606H2.59618H2.59631H2.59644H2.59656H2.59669H2.59682H2.59695H2.59708H2.59721H2.59734H2.59747H2.5976H2.59773H2.59786H2.59799H2.59813H2.59826H2.59839H2.59853H2.59866H2.59879H2.59893H2.59906H2.5992H2.59933H2.59947H2.59961H2.59974H2.59988H2.60002H2.60015H2.60029H2.60043H2.60057H2.60071H2.60085H2.60099H2.60113H2.60127H2.60141H2.60155H2.60169H2.60183H2.60197H2.60212H2.60226H2.6024H2.60255H2.60269H2.60283H2.60298H2.60312H2.60327H2.60341H2.60356H2.6037H2.60385H2.604H2.60414H2.60429H2.60444H2.60458H2.60473H2.60488H2.60503H2.60518H2.60533H2.60548H2.60563H2.60578H2.60593H2.60608H2.60623H2.60638H2.60653H2.60668H2.60683H2.60698H2.60714H2.60729H2.60744H2.6076H2.60775H2.6079H2.60806H2.60821H2.60836H2.60852H2.60867H2.60883H2.60898H2.60914H2.6093H2.60945H2.60961H2.60977H2.60992H2.61008H2.61024H2.61039H2.61055H2.61071H2.61087H2.61103H2.61118H2.61134H2.6115H2.61166H2.61182H2.61198H2.61214H2.6123H2.61246H2.61262H2.61278H2.61294H2.6131H2.61327H2.61343H2.61359H2.61375H2.61391H2.61407H2.61424H2.6144H2.61456H2.61473H2.61489H2.61505H2.61522H2.61538H2.61554H2.61571H2.61587H2.61604H2.6162H2.61636H2.61653H2.61669H2.61686H2.61703H2.61719H2.61736H2.61752H2.61769H2.61785H2.61802H2.61819H2.61835H2.61852H2.61869H2.61885H2.61902H2.61919H2.61935H2.61952H2.61969H2.61986H2.62003H2.62019H2.62036H2.62053H2.6207H2.62087H2.62103H2.6212H2.62137H2.62154H2.62171H2.62188H2.62205H2.62222H2.62239H2.62256H2.62273H2.6229H2.62307H2.62323H2.6234H2.62357H2.62375H2.62392H2.62409H2.62426H2.62443H2.6246H2.62477H2.62494H2.62511H2.62528H2.62545H2.62562H2.62579H2.62596H2.62613H2.62631H2.62648H2.62665H2.62682H2.62699H2.62716H2.62733H2.62751H2.62768H2.62785H2.62802H2.62819H2.62836H2.62854H2.62871H2.62888H2.62905H2.62922H2.6294H2.62957H2.62974H2.62991H2.63008H2.63026H2.63043H2.6306H2.63077H2.63094H2.63112H2.63129H2.63146H2.63163H2.6318H2.63198H2.63215H2.63232H2.63249H2.63267H2.63284H2.63301H2.63318H2.63335H2.63353H2.6337H2.63387H2.63404H2.63421H2.63439H2.63456H2.63473H2.6349H2.63507H2.63525H2.63542H2.63559H2.63576H2.63593H2.6361H2.63628H2.63645H2.63662H2.63679H2.63696H2.63713H2.63731H2.63748H2.63765H2.63782H2.63799H2.63816H2.63833H2.6385H2.63867H2.63884H2.63902H2.63919H2.63936H2.63953H2.6397H2.63987H2.64004H2.64021H2.64038H2.64055H2.64072H2.64089H2.64106H2.64123H2.6414H2.64157H2.64174H2.64191H2.64207H2.64224H2.64241H2.64258H2.64275H2.64292H2.64309H2.64326H2.64342H2.64359H2.64376H2.64393H2.6441H2.64426H2.64443H2.6446H2.64477H2.64493H2.6451H2.64527H2.64543H2.6456H2.64577H2.64593H2.6461H2.64627H2.64643H2.6466H2.64676H2.64693H2.64709H2.64726H2.64742H2.64759H2.64775H2.64792H2.64808H2.64825H2.64841H2.64857H2.64874H2.6489H2.64906H2.64923H2.64939H2.64955H2.64972H2.64988H2.65004H2.6502H2.65036H2.65053H2.65069H2.65085H2.65101H2.65117H2.65133H2.65149H2.65165H2.65181H2.65197H2.65213H2.65229H2.65245H2.65261H2.65277H2.65293H2.65309H2.65324H2.6534H2.65356H2.65372H2.65387H2.65403H2.65419H2.65434H2.6545H2.65466H2.65481H2.65497H2.65512H2.65528H2.65543H2.65559H2.65574H2.6559H2.65605H2.6562H2.65636H2.65651H2.65666H2.65682H2.65697H2.65712H2.65727H2.65742H2.65758H2.65773H2.65788H2.65803H2.65818H2.65833H2.65848H2.65863H2.65878H2.65892H2.65907H2.65922H2.65937H2.65952H2.65966H2.65981H2.65996H2.6601H2.66025H2.6604H2.66054H2.66069H2.66083H2.66098H2.66112H2.66126H2.66141H2.66155H2.66169H2.66184H2.66198H2.66212H2.66226H2.6624H2.66255H2.66269H2.66283H2.66297H2.66311H2.66325H2.66338H2.66352H2.66366H2.6638H2.66394H2.66407H2.66421H2.66435H2.66448H2.66462H2.66476H2.66489H2.66503H2.66516H2.66529H2.66543H2.66556H2.66569H2.66583H2.66596H2.66609H2.66622H2.66635H2.66648H2.66662H2.66675H2.66687H2.667H2.66713H2.66726H2.66739H2.66752H2.66764H2.66777H2.6679H2.66802H2.66815H2.66827H2.6684H2.66852H2.66865H2.66877H2.66889H2.66902H2.66914H2.66926H2.66938H2.6695H2.66962H2.66975H2.66986H2.66998H2.6701H2.67022H2.67034H2.67046H2.67057H2.67069H2.67081H2.67092H2.67104H2.67115H26.0427C26.491 41.2912 26.992 41.2458 27.5236 41.0823C27.5239 41.0822 27.5241 41.0821 27.5243 41.0821L28.9509 40.6521C28.9513 40.652 28.9516 40.6519 28.952 40.6518C29.7936 40.4061 30.9137 40.2802 32.0443 40.2802C33.175 40.2802 34.2952 40.4062 35.1367 40.6518C35.1371 40.6519 35.1374 40.652 35.1378 40.6521L36.5657 41.0825L36.5664 41.0827C37.7471 41.4348 38.7661 41.2175 39.4135 40.6147C40.0616 40.0114 40.3437 39.0119 40.0749 37.8117C40.0749 37.8115 40.0748 37.8112 40.0748 37.811L36.9213 23.434L36.9207 23.4314C36.8323 23.0486 36.4497 22.7826 36.037 22.8709L36.0332 22.8718C35.6504 22.9602 35.3843 23.3428 35.4728 23.7555L35.473 23.7566L38.6266 38.134C38.7755 38.8223 38.6646 39.2783 38.4079 39.5229C38.1251 39.7741 37.6613 39.8644 37.0048 39.6638L37.0038 39.6635L35.5739 39.2325L35.5711 39.2317C34.5913 38.9489 33.3175 38.8106 32.0541 38.8106C30.7908 38.8106 29.517 38.9489 28.5372 39.2317L28.5372 39.2317L28.5344 39.2326L27.1047 39.6634L2.57211 41.2302Z" fill="#002C31" stroke="#002C31" stroke-width="0.5"/>
<path d="M8.63529 8.24272L8.63548 8.24276L8.63724 8.23284C8.69094 7.92851 8.78011 7.67539 8.8544 7.48868C8.86321 7.47109 8.87128 7.45506 8.87888 7.44037H13.6996C14.1119 7.44037 14.4393 7.11297 14.4393 6.70065C14.4393 6.28834 14.1119 5.96094 13.6996 5.96094H8.66528C8.39876 5.96094 8.12087 6.06879 7.88126 6.3084C7.61327 6.57639 7.36582 7.1256 7.18729 7.91904L7.18729 7.91904L7.18695 7.92059L6.2078 12.4051C6.12052 12.7873 6.35327 13.2011 6.76965 13.2914C7.15214 13.3786 7.56625 13.1452 7.65594 12.7281C7.65598 12.7279 7.65602 12.7278 7.65606 12.7276L8.63529 8.24272Z" fill="#002C31" stroke="#002C31" stroke-width="0.5"/>
</svg>
