<svg width="33" height="32" viewBox="0 0 33 32" fill="none" xmlns="http://www.w3.org/2000/svg">
<g clip-path="url(#clip0)">
<path fill-rule="evenodd" clip-rule="evenodd" d="M3.70001 11.2H18.6312C18.925 11.2 19.1625 10.9625 19.1625 10.6688C19.1625 10.375 18.925 10.1375 18.6312 10.1375H3.70001C3.40626 10.1375 3.16876 10.375 3.16876 10.6688C3.16876 10.9625 3.40626 11.2 3.70001 11.2Z" fill="#06555A"/>
<path fill-rule="evenodd" clip-rule="evenodd" d="M5.30001 28.8H3.70001V27.2C3.70001 26.9063 3.46251 26.6688 3.16876 26.6688C2.87501 26.6688 2.63751 26.9063 2.63751 27.2V29.3313C2.63751 29.625 2.87501 29.8625 3.16876 29.8625H5.30001C5.59376 29.8625 5.83126 29.625 5.83126 29.3313C5.83126 29.0375 5.59376 28.8 5.30001 28.8Z" fill="#06555A"/>
<path fill-rule="evenodd" clip-rule="evenodd" d="M6.90002 4.26876C7.19377 4.26876 7.43127 4.03126 7.43127 3.73751V2.66876C7.43127 2.37501 7.19377 2.13751 6.90002 2.13751C6.60627 2.13751 6.36877 2.37501 6.36877 2.66876V3.73751C6.36877 4.02501 6.60627 4.26876 6.90002 4.26876Z" fill="#06555A"/>
<path fill-rule="evenodd" clip-rule="evenodd" d="M4.76874 4.26876C5.06249 4.26876 5.29999 4.03126 5.29999 3.73751V2.66876C5.29999 2.37501 5.06249 2.13751 4.76874 2.13751C4.47499 2.13751 4.23749 2.37501 4.23749 2.66876V3.73751C4.23124 4.02501 4.46874 4.26876 4.76874 4.26876Z" fill="#06555A"/>
<path fill-rule="evenodd" clip-rule="evenodd" d="M17.5625 4.26876C17.8562 4.26876 18.0938 4.03126 18.0938 3.73751V2.66876C18.0938 2.37501 17.8562 2.13751 17.5625 2.13751C17.2688 2.13751 17.0312 2.37501 17.0312 2.66876V3.73751C17.0312 4.02501 17.2688 4.26876 17.5625 4.26876Z" fill="#06555A"/>
<path fill-rule="evenodd" clip-rule="evenodd" d="M9.03125 4.26876C9.325 4.26876 9.5625 4.03126 9.5625 3.73751V2.66876C9.5625 2.37501 9.325 2.13751 9.03125 2.13751C8.7375 2.13751 8.5 2.37501 8.5 2.66876V3.73751C8.5 4.02501 8.7375 4.26876 9.03125 4.26876Z" fill="#06555A"/>
<path fill-rule="evenodd" clip-rule="evenodd" d="M11.1688 4.26876C11.4625 4.26876 11.7 4.03126 11.7 3.73751V2.66876C11.7 2.37501 11.4625 2.13751 11.1688 2.13751C10.875 2.13751 10.6375 2.37501 10.6375 2.66876V3.73751C10.6313 4.02501 10.8688 4.26876 11.1688 4.26876Z" fill="#06555A"/>
<path fill-rule="evenodd" clip-rule="evenodd" d="M13.3 4.26876C13.5937 4.26876 13.8312 4.03126 13.8312 3.73751V2.66876C13.8312 2.37501 13.5937 2.13751 13.3 2.13751C13.0062 2.13751 12.7687 2.37501 12.7687 2.66876V3.73751C12.7687 4.02501 13.0062 4.26876 13.3 4.26876Z" fill="#06555A"/>
<path fill-rule="evenodd" clip-rule="evenodd" d="M15.4313 4.26876C15.725 4.26876 15.9625 4.03126 15.9625 3.73751V2.66876C15.9625 2.37501 15.725 2.13751 15.4313 2.13751C15.1375 2.13751 14.9 2.37501 14.9 2.66876V3.73751C14.9 4.02501 15.1375 4.26876 15.4313 4.26876Z" fill="#06555A"/>
<path d="M30.6313 21.3312H23.8188L23.2062 19.4875C22.9937 18.8562 22.4812 18.375 21.8375 18.2V10.8438C21.8375 10.2688 21.65 9.70625 21.3062 9.24375L19.1125 6.31875C19.7812 6.1125 20.2375 5.5 20.2375 4.8V1.6C20.2375 0.71875 19.5188 0 18.6375 0H3.7C2.81875 0 2.1 0.71875 2.1 1.6V4.8C2.1 5.5 2.55625 6.1125 3.225 6.31875L1.03125 9.24375C0.6875 9.70625 0.5 10.2688 0.5 10.8438V29.3312C0.5 30.8062 1.69375 31.9937 3.16875 32H20.9438C21.6313 32 22.2437 31.5625 22.4625 30.9062L24.4125 25.0688H30.6375C31.1313 25.0688 31.6062 24.875 31.9562 24.525C32.4937 23.9937 32.65 23.1875 32.3625 22.4875C32.0687 21.7875 31.3875 21.3312 30.6313 21.3312ZM22.1938 19.8312L22.6938 21.3375H13.5063L14.0063 19.8375C14.1313 19.4625 14.4813 19.2062 14.8813 19.2062H15.775C16.4 19.2062 16.9875 18.9125 17.3625 18.4125C17.5437 18.1875 17.8125 18.0625 18.1 18.0625C18.3875 18.0625 18.6562 18.1938 18.8375 18.4125C19.2125 18.9125 19.8 19.2062 20.425 19.2062H21.3188C21.7125 19.2 22.0625 19.45 22.1938 19.8312ZM11.2437 23.4375L11.6062 24.5312H1.56875V14.9312H20.7687V18.1313H20.4312C20.1437 18.1313 19.8687 17.9938 19.6938 17.7625C19.3188 17.2625 18.7313 16.9688 18.1063 16.9688C17.4813 16.9688 16.8937 17.2625 16.5187 17.7625C16.3437 17.9938 16.0688 18.1313 15.7812 18.1313H14.8875C14.0312 18.1313 13.2688 18.6812 13 19.4875L12.3687 21.3813C12.0062 21.475 11.6938 21.6938 11.475 21.9937C11.1625 22.4125 11.0812 22.95 11.2437 23.4375ZM3.16875 1.6C3.16875 1.30625 3.40625 1.06875 3.7 1.06875H18.6313C18.925 1.06875 19.1625 1.30625 19.1625 1.6V4.8C19.1625 5.09375 18.925 5.33125 18.6313 5.33125H3.7C3.40625 5.33125 3.16875 5.09375 3.16875 4.8V1.6ZM1.8875 9.88125L4.5 6.4H17.8312L20.4438 9.88125C20.65 10.1562 20.7625 10.4937 20.7625 10.8438V13.8687H1.56875V10.8438C1.56875 10.4937 1.68125 10.1562 1.8875 9.88125ZM1.56875 29.3312V25.6H11.9688L13.7375 30.9C13.7438 30.9125 13.7437 30.9187 13.75 30.9312H3.16875C2.28125 30.9312 1.56875 30.2125 1.56875 29.3312ZM31.2 23.7625C31.05 23.9125 30.8438 23.9937 30.6313 23.9937H21.3C21.0062 23.9937 20.7687 24.2312 20.7687 24.525C20.7687 24.8188 21.0062 25.0562 21.3 25.0562H23.2875L21.45 30.5562C21.375 30.775 21.175 30.9188 20.9438 30.9188H15.2563C15.025 30.9188 14.8188 30.7687 14.75 30.55L12.2625 23.0812C12.2063 22.9187 12.2375 22.7375 12.3375 22.6C12.4375 22.4625 12.6 22.3813 12.7688 22.3813H30.6313C30.9563 22.3813 31.25 22.575 31.375 22.875C31.4937 23.1938 31.425 23.5375 31.2 23.7625Z" fill="#06555A"/>
</g>
<defs>
<clipPath id="clip0">
<rect width="32" height="32" fill="white" transform="translate(0.5)"/>
</clipPath>
</defs>
</svg>
