<svg width="29" height="32" viewBox="0 0 29 32" fill="none" xmlns="http://www.w3.org/2000/svg">
<g clip-path="url(#clip0)">
<path d="M11.7281 32H4.7531C3.75935 32 2.87185 31.3687 2.5406 30.4312L2.50935 30.3438C1.72185 28.1063 0.396851 24.35 0.396851 18.1812C0.396851 11.4437 2.3406 5.725 3.17185 3.28125L3.25935 3.025C3.4906 2.325 4.14685 1.85625 4.88435 1.85625H6.3656C6.62185 1.85625 6.83435 2.06875 6.83435 2.325C6.83435 2.58125 6.62185 2.79375 6.3656 2.79375H4.88435C4.54685 2.79375 4.2531 3.00625 4.14685 3.325L4.05935 3.5875C4.0406 3.6375 4.0281 3.68125 4.00935 3.7375H6.2281C6.37185 3.7375 6.5031 3.8 6.5906 3.9125C6.59685 3.91875 7.2281 4.675 8.2406 4.675C9.2531 4.675 9.88435 3.91875 9.8906 3.9125C9.9781 3.8 10.1156 3.7375 10.2531 3.7375H12.4719C12.4531 3.6875 12.4406 3.6375 12.4219 3.59375L12.3344 3.33125C12.2281 3.0125 11.9281 2.8 11.5969 2.8H8.2406C7.98435 2.8 7.77185 2.5875 7.77185 2.33125C7.77185 2.075 7.98435 1.8625 8.2406 1.8625H11.5969C12.3344 1.8625 12.9906 2.33125 13.2281 3.03125L13.3156 3.2875C13.4906 3.8 13.7031 4.43125 13.9344 5.16875C14.3031 3.7 14.7094 2.55625 15.0281 1.65625L15.0594 1.56875C15.3906 0.63125 16.2781 0 17.2719 0H24.2469C25.2406 0 26.1281 0.63125 26.4594 1.56875L26.4906 1.65625C27.2781 3.9 28.6031 7.65 28.6031 13.825C28.6031 20.5625 26.6593 26.2812 25.8281 28.7188L25.7406 28.975C25.5031 29.675 24.8468 30.1437 24.1094 30.1437H22.6281C22.3719 30.1437 22.1594 29.9312 22.1594 29.675C22.1594 29.4187 22.3719 29.2062 22.6281 29.2062H24.1094C24.4468 29.2062 24.7406 28.9937 24.8469 28.675L24.9344 28.4125C24.9531 28.3625 24.9656 28.3188 24.9844 28.2625H22.7656C22.6219 28.2625 22.4906 28.2 22.4031 28.0875C22.3969 28.0812 21.7656 27.325 20.7531 27.325C19.7406 27.325 19.1094 28.0812 19.1031 28.0875C19.0156 28.2 18.8781 28.2625 18.7406 28.2625H16.5219C16.5406 28.3125 16.5531 28.3625 16.5718 28.4062L16.6594 28.6688C16.7656 28.9875 17.0656 29.2 17.3969 29.2H20.7531C21.0094 29.2 21.2219 29.4125 21.2219 29.6688C21.2219 29.925 21.0094 30.1375 20.7531 30.1375H17.3969C16.6594 30.1375 16.0031 29.6688 15.7656 28.9688L15.6781 28.7062C15.5094 28.2188 15.2969 27.5813 15.0594 26.825C14.6906 28.2812 14.2844 29.4312 13.9656 30.3312L13.9344 30.4188C13.6094 31.3688 12.7219 32 11.7281 32ZM2.84685 7.48125C2.08435 10.3 1.33435 14.05 1.33435 18.1812C1.33435 24.1937 2.62185 27.85 3.39685 30.0375L3.4281 30.125C3.6281 30.6875 4.15935 31.0688 4.75935 31.0688H11.7344C12.3281 31.0688 12.8656 30.6875 13.0656 30.125L13.0969 30.0375C13.8656 27.85 15.1594 24.1937 15.1594 18.1812C15.1594 15.7437 14.8969 13.1875 14.3781 10.5875C14.3281 10.3312 14.4906 10.0875 14.7469 10.0375C15.0031 9.9875 15.2469 10.15 15.2969 10.4062C15.8281 13.0688 16.0969 15.6812 16.0969 18.1812C16.0969 20.6687 15.8844 22.7625 15.5719 24.5187H26.1594C26.9219 21.7062 27.6719 17.9562 27.6719 13.825C27.6719 7.8125 26.3843 4.15625 25.6094 1.96875L25.5781 1.88125C25.3781 1.31875 24.8469 0.9375 24.2469 0.9375H17.2719C16.6781 0.9375 16.1406 1.31875 15.9406 1.88125L15.9094 1.96875C15.4906 3.15625 14.9156 4.78125 14.4781 7.01875C14.6031 7.475 14.7344 7.9625 14.8594 8.475C14.9219 8.725 14.7656 8.98125 14.5156 9.04375C14.2656 9.10625 14.0094 8.95 13.9469 8.7C13.8469 8.2875 13.7406 7.8875 13.6406 7.5125L2.84685 7.48125ZM22.9781 27.3312H25.3031C25.4844 26.7875 25.6781 26.1562 25.8843 25.4562H15.6281C15.8344 26.1562 16.0281 26.7875 16.2094 27.3312H18.5344C18.8531 27.0187 19.6281 26.3937 20.7531 26.3937C21.8844 26.3937 22.6593 27.0187 22.9781 27.3312ZM3.10935 6.54375L13.3781 6.5625C13.1719 5.85625 12.9719 5.21875 12.7906 4.66875H10.4594C10.1406 4.98125 9.3656 5.60625 8.2406 5.60625C7.1156 5.60625 6.3406 4.98125 6.02185 4.66875H3.6906C3.5156 5.2125 3.3156 5.84375 3.10935 6.54375ZM8.2406 22.25C8.18435 22.25 8.13435 22.2375 8.0781 22.2188L6.0406 21.475C4.2781 20.8313 3.09685 19.1437 3.09685 17.2687V15.1C3.09685 14.95 3.17185 14.8062 3.29685 14.7188C3.42185 14.6313 3.58435 14.6125 3.7281 14.6625L5.7656 15.4062C6.8656 15.8062 7.7406 16.6187 8.2406 17.625C8.7406 16.6187 9.6156 15.8062 10.7156 15.4062L12.7531 14.6625C12.8969 14.6125 13.0594 14.6313 13.1844 14.7188C13.3094 14.8062 13.3844 14.95 13.3844 15.1V17.2687C13.3844 19.1437 12.2031 20.8375 10.4406 21.475L8.4031 22.2188C8.3531 22.2437 8.29685 22.25 8.2406 22.25ZM4.0406 15.775V17.2687C4.0406 18.75 4.9781 20.0875 6.37185 20.5938L7.7781 21.1063V19.6125C7.7781 18.1312 6.8406 16.7938 5.44685 16.2875L4.0406 15.775ZM8.70935 19.6125V21.1063L10.1156 20.5938C11.5094 20.0875 12.4469 18.75 12.4469 17.2687V15.775L11.0406 16.2875C9.64685 16.7938 8.70935 18.1312 8.70935 19.6125ZM20.7593 17.325C18.9656 17.325 17.5093 15.8687 17.5093 14.075C17.5093 12.6375 18.3156 10.925 20.0406 8.7C20.2156 8.475 20.4781 8.35 20.7593 8.35C21.0406 8.35 21.3031 8.48125 21.4781 8.7C23.2031 10.9312 24.0093 12.6375 24.0093 14.075C24.0093 15.8687 22.5469 17.325 20.7593 17.325ZM20.7593 9.30625C19.2031 11.3187 18.4531 12.8813 18.4531 14.0813C18.4531 15.3562 19.4906 16.3875 20.7593 16.3875C22.0343 16.3875 23.0656 15.35 23.0656 14.0813C23.0656 12.8813 22.3156 11.3187 20.7593 9.30625Z" fill="#06555A"/>
</g>
<defs>
<clipPath id="clip0">
<rect width="28.2062" height="32" fill="white" transform="translate(0.396851)"/>
</clipPath>
</defs>
</svg>
