<svg width="21" height="32" viewBox="0 0 21 32" fill="none" xmlns="http://www.w3.org/2000/svg">
<g clip-path="url(#clip0)">
<path d="M16.0562 3.96877C16.3125 3.96877 16.525 3.75627 16.525 3.50002V2.48752C16.525 2.23127 16.3125 2.01877 16.0562 2.01877C15.8 2.01877 15.5875 2.23127 15.5875 2.48752V3.50002C15.5875 3.75627 15.8 3.96877 16.0562 3.96877Z" fill="#06555A"/>
<path d="M13.2812 3.96877C13.5375 3.96877 13.75 3.75627 13.75 3.50002V2.48752C13.75 2.23127 13.5375 2.01877 13.2812 2.01877C13.025 2.01877 12.8125 2.23127 12.8125 2.48752V3.50002C12.8125 3.75627 13.0188 3.96877 13.2812 3.96877Z" fill="#06555A"/>
<path d="M4.94378 2.01877C4.68754 2.01877 4.47504 2.23127 4.47504 2.48752V3.50002C4.47504 3.75627 4.68754 3.96877 4.94378 3.96877C5.20003 3.96877 5.41253 3.75627 5.41253 3.50002V2.48752C5.41253 2.23127 5.20628 2.01877 4.94378 2.01877Z" fill="#06555A"/>
<path d="M7.72504 2.01877C7.46879 2.01877 7.25629 2.23127 7.25629 2.48752V3.50002C7.25629 3.75627 7.46879 3.96877 7.72504 3.96877C7.98129 3.96877 8.19379 3.75627 8.19379 3.50002V2.48752C8.19379 2.23127 7.98129 2.01877 7.72504 2.01877Z" fill="#06555A"/>
<path d="M10.5 3.96877C10.7563 3.96877 10.9688 3.75627 10.9688 3.50002V2.48752C10.9688 2.23127 10.7563 2.01877 10.5 2.01877C10.2438 2.01877 10.0312 2.23127 10.0312 2.48752V3.50002C10.0312 3.75627 10.2438 3.96877 10.5 3.96877Z" fill="#06555A"/>
<path d="M3.46875 22.8813V24.9C3.46875 25.1563 3.68125 25.3688 3.9375 25.3688H16.4375C16.6938 25.3688 16.9062 25.1563 16.9062 24.9V22.8813C16.9062 22.625 16.6938 22.4125 16.4375 22.4125H3.9375C3.675 22.4125 3.46875 22.625 3.46875 22.8813ZM4.40625 23.35H15.9688V24.4313H4.40625V23.35Z" fill="#06555A"/>
<path d="M10.9688 20.8625V16.825C10.9688 16.5688 10.7563 16.3563 10.5 16.3563C10.2438 16.3563 10.0312 16.5688 10.0312 16.825V20.8625C10.0312 21.1188 10.2438 21.3313 10.5 21.3313C10.7625 21.3313 10.9688 21.1188 10.9688 20.8625Z" fill="#06555A"/>
<path d="M7.10629 21.3312C7.35004 21.3312 7.56254 21.175 7.63754 20.95L8.95629 16.9812C9.03754 16.7375 8.90629 16.4687 8.65629 16.3875C8.41254 16.3062 8.14379 16.4375 8.06254 16.6875L7.09379 19.6062L6.07504 16.675C5.98754 16.4312 5.72504 16.3 5.48129 16.3875C5.23754 16.475 5.10629 16.7375 5.19379 16.9812L6.57504 20.9625C6.65629 21.1812 6.86879 21.3312 7.10629 21.3312Z" fill="#06555A"/>
<path d="M14.7562 16.35H12.525C12.2687 16.35 12.0562 16.5625 12.0562 16.8188C12.0562 17.075 12.2687 17.2875 12.525 17.2875H13.1687V20.8563C13.1687 21.1125 13.3812 21.325 13.6375 21.325C13.8937 21.325 14.1062 21.1125 14.1062 20.8563V17.2875H14.75C15.0062 17.2875 15.2187 17.075 15.2187 16.8188C15.2187 16.5625 15.0125 16.35 14.7562 16.35Z" fill="#06555A"/>
<path d="M15.7437 21.3C16.1269 21.3 16.4375 20.9894 16.4375 20.6063C16.4375 20.2231 16.1269 19.9125 15.7437 19.9125C15.3606 19.9125 15.05 20.2231 15.05 20.6063C15.05 20.9894 15.3606 21.3 15.7437 21.3Z" fill="#06555A"/>
<path d="M19.5625 10.5063L17.5125 8.4625C17.3625 8.3125 17.2812 8.1125 17.2812 7.9V5.9875H17.4438C18.05 5.9875 18.5438 5.49375 18.5438 4.8875V1.1C18.5438 0.49375 18.05 0 17.4438 0H3.55625C2.95 0 2.45625 0.49375 2.45625 1.1V4.8875C2.45625 5.49375 2.95 5.9875 3.55625 5.9875H3.71875V7.9C3.71875 8.1125 3.6375 8.3125 3.4875 8.4625L1.4375 10.5063C0.875 11.0688 0.5625 11.825 0.5625 12.625V22.7938C0.5625 23.05 0.775 23.2625 1.03125 23.2625C1.2875 23.2625 1.5 23.05 1.5 22.7938V15.2312H19.5V17.1C19.5 17.3563 19.7125 17.5688 19.9688 17.5688C20.225 17.5688 20.4375 17.3563 20.4375 17.1V12.625C20.4375 11.825 20.1313 11.075 19.5625 10.5063ZM1.5 14.3V12.625C1.5 12.075 1.7125 11.5562 2.1 11.1687L4.15 9.125C4.475 8.8 4.65625 8.3625 4.65625 7.9V5.9875H7.075C7.33125 5.9875 7.54375 5.775 7.54375 5.51875C7.54375 5.2625 7.33125 5.05 7.075 5.05H3.55625C3.46875 5.05 3.39375 4.975 3.39375 4.8875V1.1C3.39375 1.0125 3.46875 0.9375 3.55625 0.9375H17.4438C17.5312 0.9375 17.6063 1.0125 17.6063 1.1V4.8875C17.6063 4.975 17.5312 5.05 17.4438 5.05H9.2625C9.00625 5.05 8.79375 5.2625 8.79375 5.51875C8.79375 5.775 9.00625 5.9875 9.2625 5.9875H16.3438V7.9C16.3438 8.3625 16.525 8.8 16.85 9.125L18.9 11.1687C19.2875 11.5562 19.5 12.075 19.5 12.625V14.3H1.5Z" fill="#06555A"/>
<path d="M19.9688 18.825C19.7125 18.825 19.5 19.0375 19.5 19.2938V26.925H1.5V24.9813C1.5 24.725 1.2875 24.5125 1.03125 24.5125C0.775 24.5125 0.5625 24.725 0.5625 24.9875V29.0063C0.5625 30.6563 1.90625 32 3.55625 32H17.4438C19.0938 32 20.4375 30.6563 20.4375 29.0063V19.2938C20.4375 19.0375 20.2313 18.825 19.9688 18.825ZM17.4438 31.0625H3.55625C2.425 31.0625 1.5 30.1375 1.5 29.0063V27.8625H19.5V29.0063C19.5 30.1375 18.5813 31.0625 17.4438 31.0625Z" fill="#06555A"/>
</g>
<defs>
<clipPath id="clip0">
<rect width="19.875" height="32" fill="white" transform="translate(0.5625)"/>
</clipPath>
</defs>
</svg>
