<svg width="24" height="24" viewBox="0 0 24 24" fill="none" xmlns="http://www.w3.org/2000/svg">
<path d="M10.375 1.80422C11.3806 1.22366 12.6194 1.22366 13.625 1.80422L20.0173 5.49482C21.0229 6.07538 21.6423 7.14829 21.6423 8.3094V15.6906C21.6423 16.8517 21.0229 17.9246 20.0173 18.5052L13.625 22.1958C12.6194 22.7763 11.3806 22.7763 10.375 22.1958L3.9827 18.5052C2.97714 17.9246 2.3577 16.8517 2.3577 15.6906V8.3094C2.3577 7.14829 2.97714 6.07538 3.9827 5.49482L10.375 1.80422Z" stroke="#002C31" stroke-width="1.5"/>
<path opacity="0.4" fill-rule="evenodd" clip-rule="evenodd" d="M7.3444 3.6359C7.54556 3.27382 8.00216 3.14336 8.36425 3.34452L17.1875 8.24633L20.5939 6.3454C20.9556 6.14355 21.4124 6.27313 21.6143 6.63484C21.8161 6.99654 21.6865 7.45339 21.3248 7.65524L17.75 9.65019V14.5001C17.75 14.9144 17.4142 15.2501 17 15.2501C16.5858 15.2501 16.25 14.9144 16.25 14.5001V10.4873L12.75 12.4405V22.5001C12.75 22.9143 12.4142 23.2501 12 23.2501C11.5858 23.2501 11.25 22.9143 11.25 22.5001V12.4414L2.63578 7.65575C2.27369 7.45459 2.14324 6.99799 2.3444 6.6359C2.54556 6.27382 3.00216 6.14336 3.36425 6.34452L11.9992 11.1417L15.6466 9.10623L7.63578 4.65575C7.27369 4.45459 7.14324 3.99799 7.3444 3.6359Z" fill="#002C31"/>
</svg>
