<svg width="32" height="42" viewBox="0 0 32 42" fill="none" xmlns="http://www.w3.org/2000/svg">
<path d="M29.4646 25.9596V18.485C29.4646 18.1065 29.1492 17.791 28.7706 17.791C28.392 17.791 28.0765 18.1065 28.0765 18.485V25.9596C28.0765 26.335 28.3867 26.6483 28.761 26.6536C29.1604 26.6786 29.4646 26.342 29.4646 25.9596Z" fill="#B3B3B3" stroke="#B3B3B3" stroke-width="0.5"/>
<path d="M0.75 16.2274V32.3791C0.75 32.7577 1.06544 33.0732 1.44403 33.0732C1.82262 33.0732 2.13807 32.7577 2.13807 32.3791V16.2274C2.13807 15.852 1.82794 15.5387 1.45363 15.5335C1.05418 15.5084 0.75 15.845 0.75 16.2274Z" fill="#B3B3B3" stroke="#B3B3B3" stroke-width="0.5"/>
<path d="M0.75 35.5613V38.725C0.75 40.1212 1.87951 41.2507 3.27567 41.2507H27.568C28.6145 41.2507 29.4461 40.3968 29.4461 39.3725V30.4919C29.4461 30.1133 29.1307 29.7979 28.7521 29.7979C28.3735 29.7979 28.0581 30.1133 28.0581 30.4919V39.3725C28.0581 39.6415 27.837 39.8626 27.568 39.8626H3.27567C2.65518 39.8626 2.13807 39.3455 2.13807 38.725V35.5613C2.13807 35.1827 1.82262 34.8672 1.44403 34.8672C1.06544 34.8672 0.75 35.1827 0.75 35.5613Z" fill="#B3B3B3" stroke="#B3B3B3" stroke-width="0.5"/>
<path d="M3.27567 14.3965H27.568C28.2155 14.3965 28.7521 14.933 28.7521 15.5806V19.6509C28.7521 19.0033 28.2155 18.4668 27.568 18.4668H3.27567C2.27659 18.4668 1.44403 17.6342 1.44403 16.6352V16.2281C1.44403 15.2105 2.27659 14.3965 3.27567 14.3965Z" fill="white"/>
<path d="M3.25717 13.6836V13.6836L3.25344 13.6836C1.87811 13.7041 0.75 14.8322 0.75 16.2278V16.6348C0.75 18.031 1.87951 19.1605 3.27567 19.1605H15.6531C16.0317 19.1605 16.3471 18.845 16.3471 18.4664C16.3471 18.0878 16.0317 17.7724 15.6531 17.7724H3.27567C2.65519 17.7724 2.13807 17.2553 2.13807 16.6348V16.2278C2.13807 15.6094 2.65303 15.0902 3.29417 15.0902H27.568C27.837 15.0902 28.0581 15.3113 28.0581 15.5802V17.817C27.8966 17.7732 27.7305 17.7539 27.568 17.7539H24.9963C24.6177 17.7539 24.3023 18.0693 24.3023 18.4479C24.3023 18.8265 24.6177 19.142 24.9963 19.142H27.568C27.837 19.142 28.0581 19.3631 28.0581 19.632C28.0581 20.0106 28.3735 20.3261 28.7521 20.3261C29.1307 20.3261 29.4461 20.0106 29.4461 19.632V15.5617C29.4461 14.5374 28.6145 13.6836 27.568 13.6836H3.27567H3.25717Z" fill="#B3B3B3" stroke="#B3B3B3" stroke-width="0.5"/>
<path d="M28.9556 13.0272L28.197 13.4712L21.814 17.2455H7.19793L6.03235 15.2473L5.58831 14.5073C4.90376 13.3417 5.29229 11.8431 6.45788 11.1585L7.21643 10.7145L21.5735 2.24084L22.3321 1.79681C23.4977 1.11226 24.9963 1.50079 25.6808 2.66637L26.1249 3.42493L29.3996 8.95685L29.8436 9.7154C30.5097 10.844 30.1212 12.3426 28.9556 13.0272Z" fill="white"/>
<path d="M15.2276 13.5633C16.0416 14.9324 17.7993 15.3765 19.1684 14.5809C20.5375 13.7668 20.9815 12.0092 20.1859 10.6401C19.3719 9.27101 17.6142 8.82698 16.2451 9.62254C14.876 10.4181 14.4135 12.1942 15.2276 13.5633Z" fill="#B3B3B3"/>
<path d="M25.6623 2.64782L26.1063 3.40638C25.9768 3.51739 25.8473 3.60989 25.6993 3.6839C24.3302 4.49796 22.5726 4.03542 21.7585 2.66632C21.666 2.51831 21.6105 2.3703 21.5365 2.22229L22.2951 1.77825C23.4791 1.0937 24.9778 1.48223 25.6623 2.64782Z" fill="#B3B3B3"/>
<path d="M29.3811 8.93848L29.8252 9.69703C30.5097 10.8626 30.1212 12.3612 28.9556 13.0458L28.197 13.4898C28.086 13.3603 27.9935 13.2308 27.9195 13.0828C27.1055 11.7137 27.568 9.95605 28.9371 9.14199C29.0666 9.04948 29.2146 8.99398 29.3811 8.93848Z" fill="#B3B3B3"/>
<path d="M7.49396 11.1024C8.30802 12.4715 7.84548 14.2291 6.47638 15.0432C6.32837 15.1357 6.18036 15.1912 6.03235 15.2652L5.58831 14.5067C4.90376 13.3411 5.29229 11.8425 6.45788 11.1579L7.21644 10.7139C7.30894 10.8249 7.40145 10.9729 7.49396 11.1024Z" fill="#B3B3B3"/>
<path d="M30.4298 9.3306L30.4288 9.32884L26.266 2.29831L26.2657 2.29791C25.3821 0.811726 23.4534 0.307823 21.9642 1.19298C21.9641 1.19306 21.9639 1.19314 21.9638 1.19322L6.09037 10.5545L6.0896 10.5549C4.60345 11.4386 4.09954 13.3672 4.98459 14.8563C4.9847 14.8565 4.9848 14.8567 4.98491 14.8569L6.46442 17.372L6.53692 17.4953H6.6799H7.71598H8.15496L7.93099 17.1177L6.63701 14.9365L6.6359 14.9346L6.17448 14.1409L6.17383 14.1398C5.68811 13.3141 5.9648 12.2285 6.78768 11.7441C6.78784 11.744 6.788 11.7439 6.78816 11.7438L7.58262 11.282L7.58411 11.2811L21.8657 2.84532L21.8672 2.84445L22.6612 2.38279L22.6623 2.38214C23.488 1.89647 24.5734 2.17306 25.0579 2.99576C25.058 2.996 25.0582 2.99623 25.0583 2.99647L25.5202 3.79093L25.521 3.79228L28.7394 9.24884L28.7402 9.25019L29.202 10.0444L29.2026 10.0455C29.6883 10.8712 29.4117 11.9567 28.5889 12.4411C28.5887 12.4412 28.5885 12.4414 28.5883 12.4415L27.7938 12.9034L27.7925 12.9042L20.7989 17.03L20.0102 17.4953H20.926H22.6836H22.7518L22.8105 17.4607C24.5219 16.4523 26.1455 15.4949 27.3412 14.7895L28.7713 13.9456L29.166 13.7126L29.2693 13.6516L29.2958 13.6361L29.3024 13.6321L29.3041 13.6311L29.3045 13.6309L29.3046 13.6308L29.1776 13.4155L29.3047 13.6308L29.3054 13.6304C30.7917 12.7466 31.2946 10.8189 30.4298 9.3306Z" fill="#B3B3B3" stroke="#B3B3B3" stroke-width="0.5"/>
</svg>
