<svg width="149" height="126" viewBox="0 0 149 126" fill="none" xmlns="http://www.w3.org/2000/svg">
<g clip-path="url(#clip0_1188:2931)">
<path d="M83.6688 30.7751C83.0889 30.7751 82.5504 30.3609 82.4262 29.7811L78.6155 12.5089C77.4143 7.12426 71.7812 2.56805 66.2723 2.56805H62.3788C59.8108 2.56805 57.5741 3.52071 56.1658 5.30177C54.7575 7.08284 54.2605 9.44379 54.8404 11.929L58.651 29.2012C58.8167 29.9053 58.3611 30.568 57.657 30.7337C56.9528 30.8994 56.2901 30.4438 56.1244 29.7396L52.3138 12.4675C51.6096 9.15385 52.2309 6.04734 54.1777 3.68639C56.083 1.32544 58.9824 0 62.3788 0H66.2723C73.0238 0 79.6925 5.34319 81.1007 11.929L84.9114 29.2012C85.0771 29.9053 84.6214 30.568 83.9173 30.7337C83.8759 30.7337 83.7516 30.7751 83.6688 30.7751Z" fill="#839B9A"/>
<path d="M5.71596 124.84C2.23667 124.302 0.372767 121.195 1.36685 116.681L22.6982 19.5919C23.3609 16.5683 24.2308 15.0771 25.1006 15.0771H101.148C102.018 15.0771 102.888 16.5683 103.55 19.5919L124.882 116.722C126.207 122.728 122.438 126.249 116.556 124.509L111.876 123.142C105.953 121.403 96.3018 121.403 90.3787 123.142L85.6982 124.509C84.2071 124.923 82.8816 125.048 81.7219 124.882L5.71596 124.84Z" fill="white"/>
<path d="M103.551 19.5919C102.888 16.5683 102.018 15.0771 101.148 15.0771C100.279 15.0771 99.4088 16.5683 98.7461 19.5919L77.4147 116.722C76.4206 121.237 78.2845 124.343 81.7638 124.882C82.9236 125.048 84.249 124.965 85.7401 124.509L90.4206 123.142C96.3437 121.403 105.995 121.403 111.918 123.142L116.598 124.509C122.521 126.249 126.249 122.728 124.924 116.722L103.551 19.5919Z" fill="#FADAD9"/>
<path fill-rule="evenodd" clip-rule="evenodd" d="M101.024 16.1538H90.1301C89.5503 16.1538 89.0532 15.6568 89.0532 15.0769C89.0532 14.497 89.5503 14 90.1301 14H101.106C101.604 14 102.183 14.2071 102.68 14.7456C103.343 15.4497 104.047 16.9822 104.586 19.3432L125.917 116.473C126.663 119.953 125.876 122.645 124.136 124.302C122.396 125.917 119.621 126.538 116.225 125.544C115.645 125.379 115.314 124.757 115.479 124.219C115.645 123.639 116.266 123.308 116.805 123.473C119.29 124.219 121.361 123.929 122.645 122.728C123.929 121.527 124.343 119.497 123.805 116.97L102.473 19.8402C102.183 18.4734 101.811 17.4379 101.438 16.7337C101.314 16.4852 101.106 16.2367 101.024 16.1538Z" fill="black"/>
<path fill-rule="evenodd" clip-rule="evenodd" d="M5.71623 125.917C5.63339 125.917 5.59197 125.917 5.50913 125.917C3.3967 125.585 1.82274 124.467 0.870076 122.81C0.000253946 121.195 -0.289687 119.041 0.248775 116.514C0.373035 115.935 0.952917 115.562 1.5328 115.686C2.11268 115.81 2.48546 116.39 2.3612 116.97C1.5328 120.698 2.89966 123.307 5.75765 123.804H81.7221C81.7636 123.804 81.8464 123.804 81.8878 123.804C82.9233 123.97 84.0831 123.846 85.4085 123.473L90.089 122.106C96.1778 120.325 106.119 120.325 112.166 122.106C112.746 122.272 113.077 122.852 112.911 123.432C112.746 124.011 112.125 124.343 111.586 124.177C105.829 122.479 96.4677 122.479 90.7103 124.177L86.0298 125.544C84.4145 126 82.9647 126.124 81.6807 125.958H5.71623V125.917Z" fill="black"/>
<path fill-rule="evenodd" clip-rule="evenodd" d="M25.1836 16.1534C25.1008 16.2363 24.8937 16.4848 24.7694 16.7333C24.3966 17.4375 24.0653 18.473 23.7339 19.8398L5.59189 102.432C5.46763 103.011 4.88775 103.384 4.30787 103.26C3.72799 103.136 3.3552 102.556 3.47946 101.976L21.6215 19.3842C22.1599 17.0233 22.8227 15.4907 23.5268 14.7866C24.0238 14.2481 24.5623 14.041 25.1008 14.041H41.7517C42.3315 14.041 42.8286 14.5381 42.8286 15.1179C42.8286 15.6978 42.3315 16.1949 41.7517 16.1949H25.1836V16.1534Z" fill="black"/>
<path d="M69.2962 30.7751C69.2133 30.7751 69.1305 30.7751 69.0062 30.7337C68.3021 30.568 67.8879 29.9053 68.0122 29.2012L71.8228 11.929C72.3613 9.40237 71.9056 7.04142 70.4974 5.30177C69.0891 3.52071 66.8938 2.56805 64.2843 2.56805H60.3909C54.882 2.56805 49.2074 7.12426 48.0477 12.5089L44.237 29.7811C44.0713 30.4852 43.4086 30.8994 42.7045 30.7751C42.0003 30.6095 41.5861 29.9467 41.7104 29.2426L45.521 11.9704C47.0122 5.34319 53.6808 0 60.4323 0H64.3258C67.6808 0 70.6216 1.32544 72.5269 3.68639C74.4323 6.04734 75.095 9.19527 74.3909 12.4675L70.5802 29.7396C70.4145 30.3609 69.8761 30.7751 69.2962 30.7751Z" fill="#839B9A"/>
<path d="M119.539 111.626C134.705 111.626 147 99.3312 147 84.1647C147 68.9981 134.705 56.7031 119.539 56.7031C104.372 56.7031 92.0771 68.9981 92.0771 84.1647C92.0771 99.3312 104.372 111.626 119.539 111.626Z" fill="#418187"/>
<path d="M147 85.4077C146.296 85.4077 145.758 84.8692 145.758 84.1651C145.758 69.7095 133.994 57.9461 119.539 57.9461C112.373 57.9461 105.704 60.7627 100.692 65.8988C100.195 66.3959 99.4085 66.3959 98.9528 65.9402C98.4558 65.4432 98.4558 64.6562 98.9114 64.2006C104.379 58.5675 111.669 55.4609 119.539 55.4609C135.361 55.4609 148.243 68.3426 148.243 84.1651C148.243 84.8692 147.704 85.4077 147 85.4077Z" fill="black"/>
<path d="M119.539 112.911C103.716 112.911 90.8345 100.029 90.8345 84.2065C90.8345 83.5023 91.3729 82.9639 92.0771 82.9639C92.7812 82.9639 93.3197 83.5023 93.3197 84.2065C93.3197 98.6621 105.083 110.425 119.539 110.425C126.829 110.425 133.58 107.526 138.592 102.224C139.047 101.727 139.834 101.686 140.332 102.183C140.829 102.638 140.87 103.425 140.373 103.922C134.905 109.721 127.491 112.911 119.539 112.911Z" fill="black"/>
<path d="M118.006 96.5089C117.426 96.5089 116.846 96.2604 116.432 95.8462L105.332 84.7456C104.462 83.8757 104.462 82.4675 105.332 81.5976C106.201 80.7278 107.61 80.7278 108.479 81.5976L117.84 90.9586L132.917 72.6923C133.704 71.7396 135.113 71.6154 136.065 72.4024C137.018 73.1893 137.142 74.5976 136.355 75.5503L119.704 95.6805C119.29 96.1775 118.71 96.4675 118.089 96.5089C118.048 96.5089 118.048 96.5089 118.006 96.5089Z" fill="white"/>
</g>
<defs>
<clipPath id="clip0_1188:2931">
<rect width="148.243" height="126" fill="white"/>
</clipPath>
</defs>
</svg>
