<svg width="12" height="12" fill="none" xmlns="http://www.w3.org/2000/svg">
    <path clip-rule="evenodd" d="m6.552 2.088.914 1.826c.09.18.262.303.463.332l2.044.294a.605.605 0 0 1 .34 1.036l-1.478 1.42a.602.602 0 0 0-.177.538l.349 2.005c.086.496-.442.874-.893.64L6.287 9.23a.624.624 0 0 0-.574 0l-1.827.948c-.45.234-.979-.144-.892-.64l.348-2.005a.602.602 0 0 0-.177-.538l-1.478-1.42a.605.605 0 0 1 .34-1.036l2.044-.294a.615.615 0 0 0 .464-.332l.913-1.826a.62.62 0 0 1 1.104 0z" stroke="#F29796" stroke-width="1.5" stroke-linecap="round" stroke-linejoin="round"/>
</svg>
